<svg width="263.926" height="141.333" xmlns="http://www.w3.org/2000/svg" xmlns:svg="http://www.w3.org/2000/svg" xmlns:xlink="http://www.w3.org/1999/xlink">
 <g>
  <title>Layer 1</title>
  <polygon id="svg_1" opacity="0.2" fill="#1B1F8A" points="43.931,2 0.598,68 47.265,139.333 78.598,61.333"/>
  <g id="svg_2">
   <g id="svg_3">
    <path id="svg_4" fill="none" stroke="#000000" stroke-width="3" stroke-miterlimit="10" d="m191.836,21.504c-18.175,-6.461 -37.742,-9.979 -58.135,-9.979c-20.524,0 -40.22,3.564 -58.494,10.107"/>
    <g id="svg_5">
     <polygon id="svg_6" points="201.702,25.356 189.934,14.34 191.068,21.3 185.586,25.733"/>
    </g>
   </g>
  </g>
  <polygon id="svg_7" fill="none" stroke="#000000" stroke-miterlimit="10" points="43.931,2 0.598,68 47.265,139.333 78.598,61.333"/>
  <line id="svg_8" fill="none" stroke="#000000" stroke-width="4" stroke-linecap="round" stroke-miterlimit="10" x1="43.931" y1="2" x2="47.265" y2="139.333"/>
  <g id="svg_9">
   <g id="svg_10">
    <g id="svg_11">
     <defs>
      <rect id="SVGID_1_" x="52.827" y="64.676" width="6" height="8"/>
     </defs>
     <clipPath id="SVGID_2_">
      <use id="svg_12" xlink:href="#SVGID_1_"/>
     </clipPath>
     <path id="svg_13" clip-path="url(#SVGID_2_)" d="m54.612,68.122c0.293,-1.092 0.61,-1.784 1.063,-2.184c0.293,-0.267 0.771,-0.453 1.146,-0.453c0.479,0 0.771,0.32 0.771,0.826c0,0.691 -0.561,1.438 -1.385,1.836c-0.452,0.24 -1.013,0.399 -1.73,0.561l0.135,-0.586m3.435,2.583l-0.398,0.267c-0.825,0.612 -1.598,0.932 -2.156,0.932c-0.745,0 -1.226,-0.586 -1.226,-1.543c0,-0.398 0.055,-0.825 0.133,-1.277l1.307,-0.318c0.267,-0.08 0.69,-0.24 1.092,-0.399c1.357,-0.587 1.971,-1.332 1.971,-2.317c0,-0.745 -0.531,-1.225 -1.331,-1.225c-1.039,0 -2.797,1.092 -3.407,2.104c-0.479,0.799 -0.959,2.689 -0.959,3.756c0,1.252 0.691,1.971 1.838,1.971c0.903,0 1.812,-0.452 3.273,-1.625l-0.137,-0.326z"/>
    </g>
   </g>
  </g>
  <polygon id="svg_14" opacity="0.2" fill="#1B1F8A" points="227.26,2 183.926,68 230.593,139.333 261.926,61.333"/>
  <polygon id="svg_15" fill="none" stroke="#000000" stroke-miterlimit="10" points="227.26,2 183.926,68 230.593,139.333 261.926,61.333"/>
  <line id="svg_27" fill="none" stroke="#000000" stroke-miterlimit="10" x1="227.259" y1="2" x2="230.593" y2="139.333"/>
  <circle id="svg_28" cx="228.925" cy="64.675" r="5.318"/>
  <g id="svg_29">
   <defs>
    <rect id="SVGID_5_" x="216.107" y="70.946" width="8" height="8"/>
   </defs>
   <clipPath id="SVGID_6_">
    <use id="svg_30" xlink:href="#SVGID_5_"/>
   </clipPath>
   <path id="svg_31" clip-path="url(#SVGID_6_)" d="m221.193,72.022l0.16,0.293c0.16,-0.079 0.293,-0.133 0.426,-0.133c0.426,0 0.693,0.373 0.693,1.012c0,2.344 -1.545,4.926 -2.93,4.926c-0.799,0 -1.278,-0.665 -1.278,-1.704c0,-1.65 0.612,-3.115 2.184,-5.032l-0.159,-0.293c-0.32,0.133 -0.533,0.187 -0.986,0.187c-0.426,0 -1.117,-0.026 -1.57,-0.08l-0.187,-0.026c-0.106,0 -0.187,0 -0.187,0c-0.186,0 -0.346,0.026 -0.506,0.106c-0.24,0.426 -0.399,1.012 -0.612,1.864l0.347,0l0.266,-0.666c0.133,-0.267 0.426,-0.426 0.826,-0.426c0.079,0 0.213,0 0.426,0c0.133,0.026 0.239,0.026 0.452,0.026c0.319,0 0.586,-0.026 0.985,-0.08c-1.758,1.917 -2.424,3.249 -2.424,4.819c0,1.226 0.72,2.104 1.758,2.104c0.666,0 1.252,-0.292 1.998,-0.932c0.745,-0.692 1.49,-1.757 1.996,-2.849c0.347,-0.799 0.613,-1.864 0.613,-2.503c0,-0.905 -0.4,-1.545 -0.986,-1.545c-0.213,0 -0.398,0.054 -0.506,0.187l-0.799,0.745"/>
  </g>
  <text stroke="#000000" transform="matrix(0.7107555866241455,0,0,0.7107555866241455,17.187445376068354,20.721650552004576) " font-weight="normal" xml:space="preserve" text-anchor="middle" font-family="Serif" font-size="24" id="svg_32" y="17.132886" x="166.307152" stroke-width="0" fill="#000000">EdgeBisect</text>
 </g>
</svg>