<svg width="349.88" height="119.336" xmlns="http://www.w3.org/2000/svg" xmlns:svg="http://www.w3.org/2000/svg" xmlns:xlink="http://www.w3.org/1999/xlink">
 <g>
  <title>Layer 1</title>
  <g id="svg_1">
   <g id="svg_2">
    <polygon id="svg_3" opacity="0.4" fill="#1B1F8A" points="52.66699981689453,118.82499694824219 19.740999221801758,90.49199676513672 0.6670000553131104,45.51300048828125 29.395999908447266,35.19300079345703 31.16699981689453,16.367000579833984 54.47999954223633,0.6580000519752502 68.48699951171875,16.367000579833984 100.16699981689453,6.1579999923706055 107.5790023803711,35.19300079345703 136.33299255371094,50.82500076293945 117.23400115966797,77.49299621582031 109.33300018310547,99.15799713134766 90.18199920654297,116.49199676513672 "/>
    <polygon id="svg_4" fill="none" stroke="#000000" stroke-miterlimit="10" points="52.66699981689453,118.82499694824219 19.740999221801758,90.49199676513672 0.6670000553131104,45.51300048828125 29.395999908447266,35.19300079345703 31.16699981689453,16.367000579833984 54.47999954223633,0.6580000519752502 68.48699951171875,16.367000579833984 100.16699981689453,6.1579999923706055 107.5790023803711,35.19300079345703 136.33299255371094,50.82500076293945 117.23400115966797,77.49299621582031 109.33300018310547,99.15799713134766 90.18199920654297,116.49199676513672 "/>
    
   </g>
  </g>
  <g id="svg_16">
   <g id="svg_17">
    <polygon id="svg_18" opacity="0.2" fill="#1B1F8A" points="265.47698974609375,118.82499694824219 232.55099487304688,90.49199676513672 213.4770050048828,45.51300048828125 242.20599365234375,35.19300079345703 243.9770050048828,16.367000579833984 267.2909851074219,0.6580000519752502 281.2980041503906,16.367000579833984 312.97698974609375,6.1579999923706055 320.3900146484375,35.19300079345703 349.1440124511719,50.82500076293945 330.04400634765625,77.49299621582031 322.1440124511719,99.15799713134766 302.99200439453125,116.49199676513672 "/>
    <polygon id="svg_19" fill="none" stroke="#000000" stroke-miterlimit="10" points="265.47698974609375,118.82499694824219 232.55099487304688,90.49199676513672 213.4770050048828,45.51300048828125 242.20599365234375,35.19300079345703 243.9770050048828,16.367000579833984 267.2909851074219,0.6580000519752502 281.2980041503906,16.367000579833984 312.97698974609375,6.1579999923706055 320.3900146484375,35.19300079345703 349.1440124511719,50.82500076293945 330.04400634765625,77.49299621582031 322.1440124511719,99.15799713134766 302.99200439453125,116.49199676513672 "/>
    <line id="svg_20" fill="none" stroke="#000000" stroke-miterlimit="10" x1="288.978" y1="55.658" x2="281.298" y2="16.367"/>
    <line id="svg_21" fill="none" stroke="#000000" stroke-miterlimit="10" x1="288.978" y1="55.658" x2="320.39" y2="35.193"/>
    <line id="svg_22" fill="none" stroke="#000000" stroke-miterlimit="10" x1="288.978" y1="55.658" x2="330.044" y2="77.493"/>
    <line id="svg_23" fill="none" stroke="#000000" stroke-miterlimit="10" x1="288.978" y1="55.658" x2="302.992" y2="116.492"/>
    <line id="svg_24" fill="none" stroke="#000000" stroke-miterlimit="10" x1="288.978" y1="55.658" x2="265.477" y2="118.825"/>
    <line id="svg_25" fill="none" stroke="#000000" stroke-miterlimit="10" x1="288.978" y1="55.658" x2="232.551" y2="90.492"/>
    <line id="svg_26" fill="none" stroke="#000000" stroke-miterlimit="10" x1="288.978" y1="55.658" x2="242.206" y2="35.193"/>
    
    <circle id="svg_28" cx="288.978" cy="55.658" r="3.671"/>
   </g>
   <g id="svg_29">
    <defs>
     <rect id="SVGID_3_" x="282.648" y="48.78" width="10" height="17"/>
    </defs>
    <clipPath id="SVGID_4_">
     <use x="0" y="0" transform="matrix(1,0,0,1,0,0) " id="svg_30" xlink:href="#SVGID_3_"/>
    </clipPath>
   </g>
  </g>
  <g id="svg_31">
   <g id="svg_32">
    <path id="svg_33" fill="none" stroke="#000000" stroke-width="3" stroke-miterlimit="10" d="m227.278,19.637c-18.174,-6.461 -37.744,-9.979 -58.134,-9.979c-20.525,0 -40.219,3.564 -58.494,10.107"/>
    <g id="svg_34">
     <polygon id="svg_35" points="237.14500427246094,23.490999221801758 225.375,12.473999977111816 226.50999450683594,19.43400001525879 221.0279998779297,23.868000030517578 "/>
    </g>
   </g>
  </g>
  
 
  <text stroke="#000000" transform="matrix(0.7381818294525146,0,0,0.7381818294525146,42.1118163689971,18.830453734844923) " font-style="italic" xml:space="preserve" text-anchor="middle" font-family="serif" font-size="24" id="svg_67" y="41.59275" x="343.24467" stroke-linecap="null" stroke-linejoin="null" stroke-dasharray="null" stroke-width="0" fill="#000000">v</text>
   <text stroke="#000000" transform="matrix(0.7381818294525146,0,0,0.7381818294525146,42.1118163689971,18.830453734844923) " font-style="italic" xml:space="preserve" text-anchor="middle" font-family="serif" font-size="24" id="svg_67" y="61.59275" x="43.24467" stroke-linecap="null" stroke-linejoin="null" stroke-dasharray="null" stroke-width="0" fill="#000000">f</text>
  <text font-weight="normal" stroke="#000000" transform="matrix(0.6658574739613954,0,0,0.6658574739613954,28.789668928185858,15.939601665728237) " xml:space="preserve" text-anchor="middle" font-family="serif" font-size="24" id="svg_68" y="21.82054" x="215.67801" stroke-linecap="null" stroke-linejoin="null" stroke-dasharray="null" stroke-width="0" fill="#000000">VertexInsert</text>
 </g>
</svg>