<?xml version="1.0" encoding="utf-8"?>
<!-- Generator: Adobe Illustrator 16.0.4, SVG Export Plug-In . SVG Version: 6.00 Build 0)  -->
<!DOCTYPE svg PUBLIC "-//W3C//DTD SVG 1.1//EN" "http://www.w3.org/Graphics/SVG/1.1/DTD/svg11.dtd">
<svg version="1.1" id="Layer_1" xmlns="http://www.w3.org/2000/svg" xmlns:xlink="http://www.w3.org/1999/xlink" x="0px" y="0px"
	 width="397.95px" height="144.156px" viewBox="0 0 397.95 144.156" enable-background="new 0 0 397.95 144.156"
	 xml:space="preserve">
<g>
	<polygon opacity="0.2" fill="#1B1F8A" enable-background="new    " points="255.37,99.587 269.232,57.996 301.103,34.25 
		354.4,40.633 368.03,64.093 348.375,94.373 262.219,114.564 	"/>
	<g>
		<g>
			<path fill="none" stroke="#000000" stroke-width="3" stroke-miterlimit="10" d="M264.146,11.479
				C245.972,5.018,226.403,1.5,206.012,1.5c-20.525,0-40.219,3.564-58.494,10.107"/>
			<g>
				<polygon points="274.013,15.332 262.243,4.315 263.377,11.275 257.896,15.709 				"/>
			</g>
		</g>
	</g>
	<polygon fill="none" stroke="#000000" stroke-miterlimit="10" points="20,42.64 66.167,8.241 141.754,17.293 169.364,64.819 
		135.87,116.417 20,143.576 0.537,101.028 	"/>
	<polygon opacity="0.4" fill="#1B1F8A" enable-background="new    " points="20,42.64 66.167,8.241 141.754,17.293 169.364,64.819 
		135.87,116.417 20,143.576 0.537,101.028 	"/>
	<polygon fill="none" stroke="#000000" stroke-miterlimit="10" points="247.999,42.64 294.167,8.241 369.754,17.293 397.364,64.819 
		363.87,116.417 247.999,143.576 228.536,101.028 	"/>
	<polygon opacity="0.2" fill="#1B1F8A" enable-background="new    " points="247.999,42.64 294.167,8.241 369.754,17.293 
		397.364,64.819 363.87,116.417 247.999,143.576 228.536,101.028 	"/>
	<polygon fill="none" stroke="#000000" stroke-miterlimit="10" points="247.999,42.64 294.167,8.241 369.754,17.293 397.364,64.819 
		363.87,116.417 247.999,143.576 228.536,101.028 	"/>
	<polygon fill="none" stroke="#000000" stroke-miterlimit="10" points="255.37,99.587 269.232,57.996 301.103,34.25 354.4,40.633 
		368.03,64.093 348.375,94.373 262.219,114.564 	"/>
	<polygon fill="none" stroke="#000000" stroke-width="0.5" stroke-miterlimit="10" stroke-dasharray="2" points="27.735,99.587 
		41.599,57.996 73.469,34.25 126.767,40.633 140.396,64.093 120.741,94.373 34.586,114.564 	"/>
	<line fill="none" stroke="#000000" stroke-miterlimit="10" x1="262.219" y1="114.564" x2="247.999" y2="143.576"/>
	<line fill="none" stroke="#000000" stroke-miterlimit="10" x1="255.37" y1="99.587" x2="228.536" y2="101.028"/>
	<line fill="none" stroke="#000000" stroke-miterlimit="10" x1="269.232" y1="57.996" x2="247.999" y2="42.64"/>
	<line fill="none" stroke="#000000" stroke-miterlimit="10" x1="301.103" y1="34.25" x2="294.167" y2="8.241"/>
	<line fill="none" stroke="#000000" stroke-miterlimit="10" x1="354.4" y1="40.633" x2="369.754" y2="17.293"/>
	<line fill="none" stroke="#000000" stroke-miterlimit="10" x1="368.03" y1="64.093" x2="397.364" y2="64.819"/>
	<line fill="none" stroke="#000000" stroke-miterlimit="10" x1="348.375" y1="94.373" x2="363.87" y2="116.417"/>
	<g>
		<g>
			<defs>
				<rect id="SVGID_1_" x="303.292" y="66.062" width="9" height="13"/>
			</defs>
			<clipPath id="SVGID_2_">
				<use xlink:href="#SVGID_1_"  overflow="visible"/>
			</clipPath>
			<path clip-path="url(#SVGID_2_)" d="M308.165,67.345c0.933,0,1.385,0.561,1.385,1.704c0,1.625-0.771,2.743-1.863,2.743
				c-0.984,0-1.491-0.666-1.491-1.917C306.194,68.384,306.993,67.345,308.165,67.345 M308.217,75.387
				c0.72,0.559,1.039,0.985,1.039,1.519c0,0.824-1.118,1.49-2.424,1.49c-1.305,0-2.209-0.666-2.209-1.624
				c0-0.612,0.293-1.172,0.799-1.599c0.398-0.318,0.746-0.479,1.57-0.719L308.217,75.387z M310.642,68.41
				c0.267,0.054,0.373,0.054,0.532,0.054c0.267,0,0.427-0.027,0.799-0.08l0.134-0.719l-0.054-0.08
				c-0.428,0.106-0.745,0.133-1.624,0.133c-0.24-0.399-0.399-0.559-0.8-0.719c-0.346-0.106-0.746-0.187-1.064-0.187
				c-0.665,0-1.438,0.293-2.156,0.825c-0.879,0.666-1.332,1.571-1.332,2.717c0,1.225,0.692,1.943,1.918,1.943
				c0.133,0,0.319,0,0.479-0.026l-0.641,0.611c-0.266,0.24-0.426,0.533-0.426,0.746c0,0.16,0.107,0.347,0.32,0.533
				c-1.199,0.398-1.705,0.639-2.291,1.117c-0.531,0.452-0.824,1.064-0.824,1.704c0,1.146,1.117,1.864,2.85,1.864
				c2.049,0,3.834-1.146,3.834-2.477c0-0.561-0.346-1.146-1.012-1.679l-0.959-0.799c-0.533-0.427-0.746-0.72-0.746-1.013
				c0-0.159,0.106-0.318,0.32-0.611c0.053-0.054,0.079-0.08,0.105-0.134c1.57-0.372,2.688-1.704,2.688-3.115
				c0-0.133-0.026-0.293-0.053-0.532V68.41H310.642z"/>
		</g>
	</g>
	<g>
		<g>
			<defs>
				<rect id="SVGID_3_" x="73.454" y="61.863" width="10" height="17"/>
			</defs>
			<clipPath id="SVGID_4_">
				<use xlink:href="#SVGID_3_"  overflow="visible"/>
			</clipPath>
			<path clip-path="url(#SVGID_4_)" d="M81.097,67.973c0.08-0.293,0.186-0.666,0.266-0.879l-0.053-0.106l-0.107,0.026
				c-0.398,0.08-0.559,0.106-1.33,0.106h-0.268l0.347-1.783c0.239-1.358,0.692-1.971,1.411-1.971c0.479,0,0.906,0.239,1.145,0.612
				l0.16-0.054c0.08-0.266,0.24-0.745,0.373-1.064l0.08-0.24c-0.267-0.106-0.746-0.213-1.119-0.213
				c-0.159,0-0.426,0.054-0.559,0.106c-0.373,0.187-1.678,1.146-2.051,1.545c-0.346,0.346-0.532,0.825-0.719,1.73l-0.239,1.252
				c-0.64,0.319-0.958,0.452-1.358,0.585l-0.08,0.347h1.279l-0.134,0.905c-0.479,3.089-1.065,6.044-1.411,7.136
				c-0.293,0.933-0.772,1.438-1.332,1.438c-0.372,0-0.532-0.105-0.824-0.453l-0.24,0.055c-0.053,0.373-0.267,1.117-0.346,1.277
				c0.133,0.08,0.372,0.133,0.559,0.133c0.639,0,1.491-0.506,2.131-1.252c0.958-1.145,1.305-2.262,2.476-7.828
				c0.054-0.213,0.159-0.799,0.293-1.411L81.097,67.973"/>
		</g>
	</g>
	<g>
		<path d="M174.197,13.137c0.771-0.027,1.305-0.054,1.837-0.054c1.065,0,1.758,0.106,1.758,0.319l0.133,1.172h0.586l0.213-2.236
			l-0.106-0.134c-0.586-0.026-0.878-0.053-1.491-0.053c-0.373,0-0.985,0.026-2.237,0.053c-0.745,0-1.145,0-1.464,0
			c-0.453,0-0.453,0-2.822-0.026v0.586l0.585,0.053c0.719,0.054,0.772,0.16,0.772,1.545v6.497c0,1.411-0.027,1.438-0.772,1.491
			l-0.585,0.053v0.64c1.917-0.054,1.917-0.054,2.45-0.054c0.532,0,0.532,0,2.663,0.054v-0.64l-0.746-0.053
			c-0.746-0.026-0.772-0.106-0.772-1.491v-2.982c0.453-0.026,0.719-0.054,1.065-0.054h0.799c0.612,0,0.878,0.187,0.905,0.586
			l0.106,0.799h0.639l-0.053-1.704c0-0.187,0-0.399,0.053-1.65h-0.639l-0.106,0.852c-0.027,0.24-0.24,0.319-0.905,0.319h-0.799
			c-0.533,0-0.746,0-1.065-0.026v-3.862"/>
		<path d="M183.703,21.178c-0.293,0.399-0.879,0.692-1.358,0.692c-0.506,0-0.826-0.373-0.826-0.985c0-0.772,0.346-1.092,1.465-1.411
			l0.719-0.187V21.178 M183.703,21.924l-0.08,0.984l0.08,0.134c0.985-0.027,1.251-0.054,1.464-0.054
			c0.188,0,0.427,0.026,1.385,0.054v-0.586l-0.479-0.054c-0.347-0.053-0.426-0.213-0.453-0.958v-0.347
			c0-0.506-0.026-0.958-0.026-1.331c0-0.426,0.026-0.932,0.026-1.545c0.027-0.213,0.027-0.346,0.027-0.452
			c0-1.411-0.959-2.264-2.557-2.264c-0.666,0-1.332,0.187-1.917,0.533l-0.825,0.506v1.118l0.479,0.106l0.346-0.799
			c0.027-0.106,0.479-0.213,0.905-0.213c1.065,0,1.571,0.559,1.625,1.863l-1.385,0.293c-2.023,0.399-2.716,1.039-2.716,2.37
			c0,1.305,0.639,1.971,1.837,1.971c0.373,0,0.639-0.054,0.799-0.187L183.703,21.924z"/>
		<path d="M193.155,18.276c0.106-1.012,0.188-1.544,0.32-2.236l-0.107-0.214c-0.745-0.266-1.064-0.319-1.65-0.319
			c-0.586,0-1.039,0.106-1.411,0.347l-0.853,0.479c-1.41,0.852-1.916,1.65-1.916,3.035c0,2.503,1.251,3.888,3.541,3.888
			c0.799,0,1.385-0.133,2.13-0.532l0.319-0.72l-0.133-0.159c-0.533,0.213-0.905,0.293-1.357,0.293c-1.545,0-2.53-1.252-2.53-3.275
			c0-1.438,0.56-2.237,1.571-2.237c0.719,0,1.331,0.32,1.385,0.692l0.105,0.959L193.155,18.276"/>
		<path d="M198.028,18.649h-0.053c-0.107,0-0.533,0-0.772-0.027l-0.506-0.026c0.054-1.571,0.427-2.21,1.358-2.21
			c0.904,0,1.277,0.639,1.305,2.21L198.028,18.649 M201.383,18.302c0-1.704-1.197-2.796-3.008-2.796
			c-0.56,0-0.959,0.106-1.385,0.373l-0.745,0.426c-1.065,0.64-1.519,1.598-1.519,3.089c0,2.53,1.278,3.861,3.648,3.861
			c0.905,0,1.492-0.16,2.503-0.666l0.346-0.772l-0.186-0.239c-0.746,0.426-1.227,0.56-1.865,0.56c-0.825,0-1.598-0.453-1.997-1.119
			c-0.267-0.452-0.346-0.825-0.373-1.57h2.077c0.906,0,1.625-0.08,2.503-0.319V18.302L201.383,18.302z"/>
		<path d="M206.176,13.031c0.373-0.054,0.613-0.054,0.906-0.054c1.305,0,1.863,0.506,1.863,1.678c0,1.385-0.693,1.97-2.291,1.97
			h-0.479V13.031 M206.176,17.451h0.48c1.838,0,2.637,0.719,2.637,2.343c0,1.651-0.746,2.37-2.449,2.37c-0.24,0-0.4,0-0.666-0.054
			v-4.659H206.176z M206.976,12.178c-0.373,0.026-1.466,0.026-1.729,0.026c-0.213,0-0.693,0-1.412,0l-1.252-0.026v0.586l0.586,0.053
			c0.72,0.054,0.746,0.16,0.746,1.545v7.109c0,0.56-0.054,0.799-0.293,0.905l-0.533,0.293v0.373
			c1.146-0.027,1.572-0.054,2.023-0.054c0.239,0,0.561,0,0.934,0.026c0.852,0,1.276,0.027,1.305,0.027
			c2.557,0,4.312-1.438,4.312-3.488c0-0.825-0.318-1.545-0.879-1.944c-0.56-0.372-1.092-0.532-2.369-0.612
			c1.332-0.479,1.783-0.692,2.289-1.145c0.373-0.373,0.586-0.933,0.586-1.545c0-1.438-0.984-2.13-2.981-2.13L206.976,12.178
			L206.976,12.178z"/>
		<path d="M216.642,18.649h-0.08c-0.08,0-0.533,0-0.746-0.027l-0.532-0.026c0.055-1.571,0.452-2.21,1.358-2.21
			c0.903,0,1.306,0.639,1.331,2.21L216.642,18.649 M219.969,18.302c0-1.704-1.172-2.796-2.98-2.796c-0.56,0-0.986,0.106-1.412,0.373
			l-0.744,0.426c-1.039,0.64-1.519,1.598-1.519,3.089c0,2.53,1.276,3.861,3.647,3.861c0.904,0,1.49-0.16,2.502-0.666l0.373-0.772
			l-0.213-0.239c-0.746,0.426-1.226,0.56-1.838,0.56c-0.852,0-1.623-0.453-2.022-1.119c-0.24-0.452-0.347-0.825-0.373-1.57h2.077
			c0.904,0,1.623-0.08,2.503-0.319L219.969,18.302L219.969,18.302z"/>
		<path d="M224.176,23.042h1.357c0.24-0.719,0.4-1.118,0.613-1.545l2.023-4.58c0.133-0.346,0.293-0.479,0.559-0.532l0.48-0.08
			v-0.612l-1.52,0.054c-0.799-0.027-0.958-0.027-1.544-0.054v0.612l0.612,0.027c0.213,0.026,0.371,0.133,0.371,0.266
			c0,0.187-0.053,0.426-0.158,0.666l-0.958,2.396c-0.16,0.346-0.294,0.666-0.56,1.278l-1.412-3.516
			c-0.16-0.399-0.213-0.639-0.213-0.825c0-0.159,0.133-0.239,0.373-0.266l0.639-0.027v-0.612l-2.051,0.054
			c-0.213,0-0.453,0-2.051-0.054v0.612l0.4,0.027c0.266,0.026,0.451,0.292,0.744,0.984L224.176,23.042"/>
		<path d="M233.417,18.649h-0.053c-0.08,0-0.533,0-0.773-0.027l-0.506-0.026c0.055-1.571,0.426-2.21,1.358-2.21
			c0.905,0,1.278,0.639,1.331,2.21L233.417,18.649 M236.771,18.302c0-1.704-1.171-2.796-2.981-2.796
			c-0.561,0-0.985,0.106-1.412,0.373l-0.746,0.426c-1.037,0.64-1.518,1.598-1.518,3.089c0,2.53,1.279,3.861,3.648,3.861
			c0.904,0,1.49-0.16,2.503-0.666l0.347-0.772l-0.188-0.239c-0.745,0.426-1.225,0.56-1.863,0.56c-0.826,0-1.598-0.453-1.997-1.119
			c-0.239-0.452-0.347-0.825-0.372-1.57h2.076c0.904,0,1.625-0.08,2.503-0.319V18.302z"/>
		<path d="M240.899,11.54l-1.146,0.372c-0.451,0.134-0.984,0.213-1.916,0.32v0.585l0.852,0.027c0.346,0.026,0.4,0.188,0.4,1.118
			v7.455c0,0.853-0.082,0.959-0.562,1.013l-0.56,0.026v0.586l2.052-0.054c0.319,0,1.063,0.026,2.13,0.054v-0.586l-0.531-0.026
			c-0.507-0.054-0.586-0.16-0.586-1.013v-9.771L240.899,11.54"/>
	</g>
</g>
</svg>
