<?xml version="1.0" encoding="utf-8"?>
<!-- Generator: Adobe Illustrator 16.0.4, SVG Export Plug-In . SVG Version: 6.00 Build 0)  -->
<!DOCTYPE svg PUBLIC "-//W3C//DTD SVG 1.1//EN" "http://www.w3.org/Graphics/SVG/1.1/DTD/svg11.dtd">
<svg version="1.1" id="Layer_1" xmlns="http://www.w3.org/2000/svg" xmlns:xlink="http://www.w3.org/1999/xlink" x="0px" y="0px"
	 width="397.95px" height="144.156px" viewBox="0 0 397.95 144.156" enable-background="new 0 0 397.95 144.156"
	 xml:space="preserve">
<g>
	<g>
		<g>
			<path fill="none" stroke="#000000" stroke-width="3" stroke-miterlimit="10" d="M264.146,11.479
				C245.972,5.018,226.403,1.5,206.012,1.5c-20.525,0-40.219,3.564-58.494,10.107"/>
			<g>
				<polygon points="274.013,15.332 262.243,4.315 263.377,11.275 257.896,15.709 				"/>
			</g>
		</g>
	</g>
</g>
<g>
	<polygon opacity="0.2" fill="#1B1F8A" enable-background="new    " points="19.999,42.64 66.167,8.241 141.754,17.293 
		169.364,64.819 155.87,106.417 105.324,136.203 19.999,143.576 0.536,101.028 	"/>
	<polygon fill="none" stroke="#000000" stroke-miterlimit="10" points="19.999,42.64 66.167,8.241 141.754,17.293 169.364,64.819 
		155.87,106.417 105.324,136.203 19.999,143.576 0.536,101.028 	"/>
	
		<line fill="none" stroke="#000000" stroke-width="4" stroke-linecap="round" stroke-miterlimit="10" x1="19.999" y1="42.64" x2="105.324" y2="136.203"/>
	<g>
		<g>
			<defs>
				<rect id="SVGID_1_" x="69.27" y="80.946" width="6" height="8"/>
			</defs>
			<clipPath id="SVGID_2_">
				<use xlink:href="#SVGID_1_"  overflow="visible"/>
			</clipPath>
			<path clip-path="url(#SVGID_2_)" d="M71.054,84.393c0.293-1.093,0.612-1.784,1.065-2.185c0.293-0.266,0.772-0.451,1.145-0.451
				c0.479,0,0.772,0.318,0.772,0.824c0,0.692-0.559,1.438-1.384,1.838c-0.453,0.24-1.012,0.398-1.731,0.56L71.054,84.393
				 M74.489,86.976l-0.399,0.268c-0.825,0.611-1.598,0.932-2.157,0.932c-0.746,0-1.225-0.586-1.225-1.545
				c0-0.398,0.053-0.825,0.133-1.277l1.305-0.318c0.266-0.08,0.692-0.24,1.091-0.4c1.358-0.586,1.971-1.332,1.971-2.316
				c0-0.744-0.533-1.225-1.332-1.225c-1.039,0-2.796,1.092-3.408,2.104c-0.479,0.799-0.958,2.689-0.958,3.756
				c0,1.25,0.692,1.969,1.837,1.969c0.905,0,1.811-0.451,3.275-1.623L74.489,86.976z"/>
		</g>
	</g>
</g>
<polygon opacity="0.2" fill="#1B1F8A" enable-background="new    " points="247.999,42.64 294.167,8.241 369.754,17.293 
	397.364,64.819 383.87,106.417 333.325,136.203 247.999,143.576 228.536,101.028 "/>
<polygon fill="none" stroke="#000000" stroke-miterlimit="10" points="247.999,42.64 294.167,8.241 369.754,17.293 397.364,64.819 
	383.87,106.417 333.325,136.203 247.999,143.576 228.536,101.028 "/>
<line fill="none" stroke="#000000" stroke-width="4" stroke-linecap="round" stroke-miterlimit="10" x1="228.536" y1="101.028" x2="383.87" y2="106.417"/>
<g>
	<path d="M308.053,92.393c0.294-1.093,0.613-1.784,1.066-2.185c0.293-0.266,0.771-0.451,1.146-0.451
		c0.479,0,0.771,0.318,0.771,0.824c0,0.692-0.559,1.438-1.385,1.838c-0.451,0.24-1.012,0.398-1.73,0.56L308.053,92.393
		 M311.489,94.976l-0.4,0.268c-0.823,0.611-1.598,0.932-2.155,0.932c-0.746,0-1.226-0.586-1.226-1.545
		c0-0.398,0.053-0.825,0.133-1.277l1.306-0.318c0.267-0.08,0.692-0.24,1.093-0.4c1.357-0.586,1.971-1.332,1.971-2.316
		c0-0.744-0.533-1.225-1.332-1.225c-1.039,0-2.795,1.092-3.408,2.104c-0.479,0.799-0.959,2.689-0.959,3.756
		c0,1.25,0.693,1.969,1.838,1.969c0.906,0,1.811-0.451,3.275-1.623L311.489,94.976z"/>
</g>
<g>
	<path d="M176.153,11.725c0.906-0.026,1.438-0.054,2.317-0.054c0.852,0,1.544,0.134,1.544,0.319l0.133,1.198h0.586l0.213-2.263
		l-0.106-0.106c-0.585-0.054-0.878-0.08-1.491-0.08c-0.373,0-0.852,0.026-1.73,0.053c-1.145,0.027-1.598,0.027-2.05,0.027
		c-0.56,0-1.251-0.027-2.982-0.054v0.586l0.586,0.054c0.692,0.053,0.746,0.159,0.746,1.544v7.136c0,0.533-0.08,0.771-0.32,0.906
		l-0.506,0.291v0.348c1.571-0.027,1.571-0.027,1.944-0.027h0.533c1.624,0.027,2.263,0.053,3.062,0.053
		c0.826,0,1.332-0.025,2.237-0.053l0.08-0.133l0.187-2.529h-0.639l-0.346,1.518c0,0-0.026,0.025-0.053,0.025
		c-0.506,0.16-0.958,0.24-1.837,0.24c-0.666,0-1.278-0.025-2.104-0.053v-4.234c0.453-0.054,0.719-0.054,1.065-0.054h1.065
		c0.586,0,0.852,0.16,0.905,0.586l0.08,0.799h0.639l-0.027-1.731c0-0.16,0-0.187,0.027-1.704h-0.639l-0.08,0.905
		c-0.026,0.267-0.24,0.346-0.905,0.346h-1.065c-0.506,0-0.746,0-1.065-0.026V11.725"/>
	<path d="M187.789,19.047c0,0.719-0.746,1.305-1.624,1.305c-1.119,0-1.837-1.092-1.837-2.822c0-1.597,0.559-2.396,1.678-2.396
		c0.692,0,1.251,0.293,1.784,0.985V19.047 M189.733,10.234l-0.133-0.08l-1.145,0.347c-0.453,0.133-1.012,0.239-1.917,0.319v0.586
		l0.826,0.053c0.373,0,0.426,0.16,0.426,1.092v1.943l-0.319-0.106c-0.453-0.186-0.879-0.293-1.278-0.293
		c-0.506,0-0.958,0.16-1.384,0.427l-1.145,0.745c-0.905,0.612-1.332,1.518-1.332,2.876c0,2.264,1.172,3.727,3.036,3.727
		c0.346,0,0.612-0.078,0.772-0.186l1.651-1.357l-0.08,1.197l0.08,0.107c0.959-0.027,1.251-0.027,1.438-0.027
		c0.106,0,0.399,0,0.852,0.027c0.106,0,0.399,0,0.746,0v-0.586l-0.533-0.027c-0.479-0.025-0.559-0.16-0.559-1.012V10.234z"/>
	<path d="M195.671,21.816c1.944,0,2.423,0.266,2.423,1.279c0,1.092-1.065,1.916-2.477,1.916s-2.37-0.666-2.37-1.65
		c0-0.586,0.346-1.119,0.825-1.357C194.313,21.896,194.899,21.816,195.671,21.816 M195.352,14.894c0.852,0,1.305,0.691,1.305,1.943
		c0,1.118-0.426,1.704-1.278,1.704c-0.825,0-1.331-0.691-1.331-1.89C194.047,15.506,194.5,14.894,195.352,14.894z M199.772,15.746
		l0.08-1.012c-0.666,0.053-0.959,0.08-1.305,0.08c-0.133,0-0.32,0-0.586-0.027c-0.639-0.479-1.385-0.692-2.423-0.692
		c-2.023,0-3.435,1.198-3.435,2.85c0,0.585,0.213,1.119,0.585,1.544c0.293,0.293,0.533,0.453,1.092,0.639l-1.118,0.852
		c-0.16,0.107-0.266,0.453-0.266,0.773c0,0.559,0.266,0.852,1.065,1.064l-1.278,0.773c-0.239,0.133-0.426,0.531-0.426,0.984
		c0,1.357,1.331,2.236,3.435,2.236c2.796,0,4.66-1.438,4.66-3.541c0-1.357-0.746-1.971-2.344-1.971h-0.399
		c-1.571,0.027-2.13,0.053-2.316,0.053c-0.479,0-0.746-0.158-0.746-0.479c0-0.24,0.16-0.426,0.479-0.613
		c0.267,0,0.426,0.027,0.612,0.027c1.119,0,2.13-0.373,2.77-1.012c0.506-0.506,0.719-1.065,0.719-1.837
		c0-0.267-0.026-0.453-0.08-0.772L199.772,15.746z"/>
	<path d="M204.218,17.263h-0.054c-0.105,0-0.532-0.026-0.771-0.053h-0.506c0.053-1.571,0.426-2.21,1.357-2.21
		c0.906,0,1.278,0.639,1.305,2.21L204.218,17.263 M207.573,16.891c0-1.678-1.197-2.797-3.008-2.797
		c-0.533,0-0.959,0.134-1.385,0.373l-0.746,0.453c-1.064,0.612-1.518,1.57-1.518,3.089c0,2.502,1.278,3.859,3.648,3.859
		c0.904,0,1.49-0.158,2.502-0.691l0.347-0.771l-0.187-0.24c-0.745,0.426-1.225,0.559-1.863,0.559c-0.826,0-1.598-0.426-1.998-1.117
		c-0.266-0.453-0.346-0.826-0.372-1.572h2.077c0.904,0,1.624-0.08,2.502-0.318V16.891z"/>
	<path d="M212.287,11.725c0.772-0.026,1.305-0.026,1.837-0.026c1.065,0,1.758,0.106,1.784,0.292l0.106,1.198h0.586l0.213-2.263
		l-0.08-0.106c-0.612-0.054-0.904-0.08-1.518-0.08c-0.373,0-0.959,0.026-2.236,0.053c-0.746,0.027-1.145,0.027-1.465,0.027
		c-0.453,0-0.453,0-2.822-0.054v0.586l0.586,0.054c0.719,0.053,0.771,0.159,0.771,1.544v6.498c0,1.41-0.026,1.438-0.771,1.518
		l-0.586,0.027v0.639c1.917-0.027,1.917-0.027,2.477-0.027c0.506,0,0.506,0,2.636,0.027v-0.639l-0.745-0.027
		c-0.746-0.053-0.772-0.133-0.772-1.518v-2.983c0.452-0.026,0.719-0.026,1.065-0.026h0.825c0.585,0,0.853,0.16,0.905,0.586
		l0.08,0.773h0.639l-0.053-1.706c0-0.186,0-0.398,0.053-1.624h-0.639l-0.08,0.825c-0.053,0.267-0.24,0.347-0.905,0.347h-0.825
		c-0.533,0-0.746,0-1.065-0.054V11.725"/>
	<path d="M220.488,10.154L219.37,10.5c-0.479,0.133-1.012,0.239-1.943,0.319v0.586l0.852,0.053c0.346,0,0.399,0.16,0.399,1.092
		v7.456c0,0.852-0.08,0.986-0.56,1.012l-0.559,0.027v0.586l2.05-0.027c0.319,0,1.092,0,2.157,0.027v-0.586l-0.56-0.027
		c-0.506-0.025-0.585-0.16-0.585-1.012v-9.772L220.488,10.154"/>
	<path d="M224.934,10.367c-0.665,0-1.197,0.506-1.197,1.172s0.532,1.225,1.197,1.225c0.64,0,1.199-0.559,1.199-1.198
		C226.133,10.9,225.6,10.367,224.934,10.367 M225.813,14.094l-1.118,0.373c-0.506,0.134-0.905,0.213-1.571,0.293
		c-0.053,0-0.133,0-0.239,0.026v0.586l0.719,0.027c0.373,0.026,0.427,0.186,0.427,1.118v3.488c0,0.852-0.08,0.986-0.586,1.012
		l-0.56,0.027v0.586l2.05-0.027c0.32,0,1.092,0,2.157,0.027v-0.586l-0.56-0.027c-0.479-0.025-0.559-0.16-0.559-1.012v-5.804
		L225.813,14.094z"/>
	<path d="M231.192,16.332c0.346-0.532,0.852-0.799,1.518-0.799c1.225,0,1.943,0.958,1.943,2.555c0,1.652-0.719,2.689-1.863,2.689
		c-0.666,0-1.172-0.266-1.598-0.877V16.332 M231.032,14.094l-1.117,0.373c-0.533,0.134-0.826,0.187-1.625,0.293l-0.187,0.026v0.586
		l0.72,0.027c0.372,0.026,0.426,0.186,0.426,1.118v7.535c0,0.854-0.08,0.986-0.586,1.012l-0.56,0.027v0.586l2.05-0.027
		c0.214,0,0.24,0,2.317,0.027v-0.586l-0.72-0.027c-0.479,0-0.559-0.158-0.559-1.012v-2.449c0.772,0.213,1.012,0.266,1.411,0.266
		c0.532,0,1.092-0.293,2.157-1.145c0.106-0.08,0.213-0.16,0.293-0.213c1.038-0.799,1.624-2.023,1.624-3.461
		c0-1.678-1.226-2.956-2.902-2.956c-0.612,0-1.065,0.187-1.624,0.64l-0.959,0.772v-1.305L231.032,14.094z"/>
</g>
</svg>
