<?xml version="1.0" encoding="utf-8"?>
<!-- Generator: Adobe Illustrator 16.0.4, SVG Export Plug-In . SVG Version: 6.00 Build 0)  -->
<!DOCTYPE svg PUBLIC "-//W3C//DTD SVG 1.1//EN" "http://www.w3.org/Graphics/SVG/1.1/DTD/svg11.dtd">
<svg version="1.1" id="Layer_1" xmlns="http://www.w3.org/2000/svg" xmlns:xlink="http://www.w3.org/1999/xlink" x="0px" y="0px"
	 width="263.926px" height="141.333px" viewBox="0 0 263.926 141.333" enable-background="new 0 0 263.926 141.333"
	 xml:space="preserve">
<polygon opacity="0.2" fill="#1B1F8A" enable-background="new    " points="43.931,2 0.598,68 47.265,139.333 78.598,61.333 "/>
<g>
	<g>
		<path fill="none" stroke="#000000" stroke-width="3" stroke-miterlimit="10" d="M191.836,21.504
			c-18.175-6.461-37.742-9.979-58.135-9.979c-20.524,0-40.22,3.564-58.494,10.107"/>
		<g>
			<polygon points="201.702,25.356 189.934,14.34 191.068,21.3 185.586,25.733 			"/>
		</g>
	</g>
</g>
<polygon fill="none" stroke="#000000" stroke-miterlimit="10" points="43.931,2 0.598,68 47.265,139.333 78.598,61.333 "/>
<line fill="none" stroke="#000000" stroke-width="4" stroke-linecap="round" stroke-miterlimit="10" x1="43.931" y1="2" x2="47.265" y2="139.333"/>
<g>
	<g>
		<g>
			<defs>
				<rect id="SVGID_1_" x="52.827" y="64.676" width="6" height="8"/>
			</defs>
			<clipPath id="SVGID_2_">
				<use xlink:href="#SVGID_1_"  overflow="visible"/>
			</clipPath>
			<path clip-path="url(#SVGID_2_)" d="M54.612,68.122c0.293-1.092,0.61-1.784,1.063-2.184c0.293-0.267,0.771-0.453,1.146-0.453
				c0.479,0,0.771,0.32,0.771,0.826c0,0.691-0.561,1.438-1.385,1.836c-0.452,0.24-1.013,0.399-1.73,0.561L54.612,68.122
				 M58.047,70.705l-0.398,0.267c-0.825,0.612-1.598,0.932-2.156,0.932c-0.745,0-1.226-0.586-1.226-1.543
				c0-0.398,0.055-0.825,0.133-1.277l1.307-0.318c0.267-0.08,0.69-0.24,1.092-0.399c1.357-0.587,1.971-1.332,1.971-2.317
				c0-0.745-0.531-1.225-1.331-1.225c-1.039,0-2.797,1.092-3.407,2.104c-0.479,0.799-0.959,2.689-0.959,3.756
				c0,1.252,0.691,1.971,1.838,1.971c0.903,0,1.812-0.452,3.273-1.625L58.047,70.705z"/>
		</g>
	</g>
</g>
<polygon opacity="0.2" fill="#1B1F8A" enable-background="new    " points="227.26,2 183.926,68 230.593,139.333 261.926,61.333 "/>
<polygon fill="none" stroke="#000000" stroke-miterlimit="10" points="227.26,2 183.926,68 230.593,139.333 261.926,61.333 "/>
<g>
	<defs>
		<rect id="SVGID_3_" x="98.486" y="19.982" width="72" height="16"/>
	</defs>
	<clipPath id="SVGID_4_">
		<use xlink:href="#SVGID_3_"  overflow="visible"/>
	</clipPath>
	<path clip-path="url(#SVGID_4_)" d="M102.586,21.816c0.906-0.026,1.438-0.054,2.317-0.054c0.853,0,1.544,0.134,1.544,0.319
		l0.133,1.198h0.586l0.213-2.263l-0.105-0.106c-0.586-0.054-0.879-0.08-1.492-0.08c-0.372,0-0.852,0.026-1.73,0.053
		c-1.145,0.027-1.598,0.027-2.05,0.027c-0.56,0-1.251-0.027-2.982-0.054v0.586l0.586,0.054c0.692,0.053,0.745,0.159,0.745,1.544
		v7.136c0,0.533-0.08,0.772-0.319,0.906l-0.506,0.292v0.347c1.571-0.026,1.571-0.026,1.944-0.026h0.532
		c1.624,0.026,2.263,0.053,3.062,0.053c0.826,0,1.332-0.026,2.237-0.053l0.079-0.134l0.188-2.529h-0.64l-0.347,1.518
		c0,0-0.025,0.026-0.053,0.026c-0.506,0.16-0.959,0.24-1.837,0.24c-0.666,0-1.278-0.026-2.104-0.054v-4.233
		c0.453-0.054,0.72-0.054,1.066-0.054h1.064c0.586,0,0.852,0.16,0.905,0.586l0.08,0.799h0.64l-0.027-1.73
		c0-0.16,0-0.187,0.027-1.704h-0.64l-0.08,0.905c-0.026,0.267-0.239,0.346-0.905,0.346h-1.064c-0.506,0-0.746,0-1.066-0.026V21.816"
		/>
	<path clip-path="url(#SVGID_4_)" d="M114.223,29.139c0,0.719-0.746,1.305-1.624,1.305c-1.118,0-1.837-1.092-1.837-2.822
		c0-1.598,0.559-2.396,1.678-2.396c0.691,0,1.251,0.293,1.783,0.985V29.139 M116.166,20.325l-0.133-0.08l-1.145,0.347
		c-0.453,0.133-1.012,0.239-1.918,0.319v0.586l0.826,0.053c0.373,0,0.426,0.16,0.426,1.092v1.943l-0.319-0.106
		c-0.452-0.186-0.879-0.293-1.278-0.293c-0.506,0-0.959,0.16-1.385,0.427l-1.145,0.745c-0.905,0.612-1.332,1.518-1.332,2.876
		c0,2.264,1.172,3.728,3.036,3.728c0.347,0,0.612-0.079,0.772-0.187l1.65-1.357l-0.08,1.198l0.08,0.106
		c0.959-0.026,1.252-0.026,1.438-0.026c0.107,0,0.4,0,0.853,0.026c0.106,0,0.399,0,0.745,0v-0.586l-0.532-0.026
		c-0.479-0.026-0.56-0.16-0.56-1.012V20.325z"/>
	<path clip-path="url(#SVGID_4_)" d="M122.104,31.908c1.944,0,2.423,0.266,2.423,1.278c0,1.092-1.064,1.917-2.477,1.917
		c-1.41,0-2.369-0.666-2.369-1.651c0-0.586,0.346-1.118,0.825-1.357C120.746,31.988,121.332,31.908,122.104,31.908 M121.785,24.985
		c0.852,0,1.305,0.691,1.305,1.943c0,1.118-0.426,1.704-1.278,1.704c-0.825,0-1.331-0.692-1.331-1.891
		C120.48,25.598,120.934,24.985,121.785,24.985z M126.205,25.837l0.08-1.012c-0.666,0.053-0.959,0.08-1.305,0.08
		c-0.133,0-0.32,0-0.586-0.027c-0.639-0.479-1.385-0.692-2.424-0.692c-2.023,0-3.434,1.198-3.434,2.85
		c0,0.586,0.213,1.118,0.585,1.544c0.293,0.293,0.532,0.453,1.092,0.64l-1.118,0.852c-0.16,0.106-0.266,0.453-0.266,0.772
		c0,0.56,0.266,0.853,1.064,1.065l-1.278,0.772c-0.239,0.133-0.426,0.532-0.426,0.984c0,1.358,1.331,2.237,3.435,2.237
		c2.797,0,4.66-1.438,4.66-3.542c0-1.357-0.746-1.97-2.344-1.97h-0.398c-1.572,0.026-2.131,0.053-2.316,0.053
		c-0.48,0-0.746-0.159-0.746-0.479c0-0.239,0.16-0.426,0.479-0.612c0.268,0,0.427,0.026,0.613,0.026c1.118,0,2.13-0.372,2.77-1.012
		c0.506-0.506,0.719-1.064,0.719-1.837c0-0.267-0.027-0.453-0.08-0.772L126.205,25.837z"/>
	<path clip-path="url(#SVGID_4_)" d="M130.652,27.354h-0.054c-0.106,0-0.532-0.026-0.772-0.053h-0.506
		c0.054-1.571,0.426-2.21,1.358-2.21c0.905,0,1.278,0.639,1.305,2.21L130.652,27.354 M134.007,26.982
		c0-1.678-1.198-2.797-3.009-2.797c-0.532,0-0.959,0.134-1.385,0.373l-0.745,0.453c-1.065,0.612-1.519,1.57-1.519,3.089
		c0,2.503,1.279,3.86,3.648,3.86c0.905,0,1.491-0.159,2.503-0.692l0.347-0.771l-0.187-0.24c-0.745,0.427-1.226,0.56-1.864,0.56
		c-0.825,0-1.598-0.426-1.997-1.118c-0.267-0.453-0.347-0.826-0.372-1.571h2.076c0.905,0,1.625-0.08,2.503-0.319V26.982z"/>
	<path clip-path="url(#SVGID_4_)" d="M135.818,28.473c0,1.198-0.054,1.838-0.214,2.743c1.146,0.532,2.104,0.745,3.302,0.745
		c2.822,0,4.66-1.491,4.66-3.781c0-1.411-0.826-2.369-2.396-2.796l-1.811-0.479c-1.172-0.293-1.678-0.799-1.678-1.598
		c0-1.092,0.879-1.864,2.131-1.864c0.824,0,1.544,0.293,2.156,0.879l0.08,1.305h0.666c0-1.038,0.079-1.811,0.213-2.264l-0.08-0.187
		c-1.065-0.372-1.891-0.532-2.93-0.532c-2.636,0-4.207,1.252-4.207,3.382c0,1.385,0.826,2.37,2.316,2.822l2.211,0.666
		c0.904,0.266,1.331,0.772,1.331,1.518c0,1.198-1.012,2.051-2.396,2.051c-1.065,0-2.104-0.479-2.583-1.226l-0.133-1.385H135.818"/>
	<path clip-path="url(#SVGID_4_)" d="M147.906,26.423c0.347-0.532,0.879-0.799,1.545-0.799c1.225,0,1.943,0.958,1.943,2.556
		c0,1.651-0.719,2.689-1.863,2.689c-0.693,0-1.199-0.266-1.625-0.878V26.423 M147.746,24.186l-1.091,0.373
		c-0.56,0.134-0.825,0.187-1.624,0.293l-0.188,0.026v0.586l0.72,0.027c0.372,0.026,0.399,0.186,0.399,1.118v7.535
		c0,0.853-0.08,0.985-0.559,1.012l-0.561,0.027v0.585l2.051-0.026c0.213,0,0.24,0,2.316,0.026v-0.585l-0.719-0.027
		c-0.506,0-0.586-0.159-0.586-1.012v-2.449c0.799,0.213,1.039,0.266,1.412,0.266c0.559,0,1.117-0.293,2.184-1.145
		c0.105-0.08,0.186-0.16,0.266-0.213c1.064-0.799,1.624-2.024,1.624-3.462c0-1.678-1.225-2.956-2.876-2.956
		c-0.611,0-1.064,0.187-1.624,0.64l-0.985,0.772v-1.305L147.746,24.186z"/>
	<path clip-path="url(#SVGID_4_)" d="M157.546,20.245l-1.146,0.347c-0.479,0.133-1.012,0.239-1.943,0.319v0.586l0.852,0.053
		c0.347,0,0.426,0.16,0.426,1.092v7.456c0,0.852-0.079,0.985-0.585,1.012l-0.56,0.026v0.586l2.051-0.026
		c0.319,0,1.092,0,2.156,0.026v-0.586l-0.559-0.026c-0.506-0.026-0.586-0.16-0.586-1.012v-9.772L157.546,20.245"/>
	<path clip-path="url(#SVGID_4_)" d="M162.072,20.458c-0.666,0-1.198,0.506-1.198,1.172s0.532,1.225,1.198,1.225
		c0.639,0,1.172-0.559,1.172-1.198C163.244,20.991,162.738,20.458,162.072,20.458 M162.924,24.186l-1.092,0.373
		c-0.506,0.134-0.904,0.213-1.57,0.293c-0.053,0-0.133,0-0.24,0.026v0.586l0.72,0.027c0.372,0.026,0.426,0.186,0.426,1.118v3.488
		c0,0.852-0.08,0.985-0.586,1.012l-0.56,0.026v0.586l2.051-0.026c0.32,0,1.092,0,2.156,0.026v-0.586l-0.559-0.026
		c-0.506-0.026-0.586-0.16-0.586-1.012v-5.805L162.924,24.186z"/>
	<path clip-path="url(#SVGID_4_)" d="M169.928,30.736l-0.107-0.319c-0.318,0.159-0.479,0.213-0.744,0.213
		c-0.746,0-0.986-0.239-0.986-1.038v-3.781h1.678l0.133-1.039l-1.811,0.106v-0.932c0-0.825,0.054-1.357,0.188-2.156l-0.214-0.16
		c-0.639,0.319-1.145,0.506-1.944,0.799c0.054,0.825,0.054,1.118,0.054,1.465v0.958l-1.038,0.666v0.373l1.012-0.08v4.127
		c0,1.411,0.586,2.023,1.971,2.023c0.506,0,0.905-0.133,1.038-0.293L169.928,30.736"/>
</g>
<line fill="none" stroke="#000000" stroke-miterlimit="10" x1="227.259" y1="2" x2="230.593" y2="139.333"/>
<line fill="none" stroke="#000000" stroke-miterlimit="10" x1="183.926" y1="68" x2="261.926" y2="61.333"/>
<circle cx="228.925" cy="64.675" r="5.318"/>
<g>
	<defs>
		<rect id="SVGID_5_" x="216.107" y="70.946" width="8" height="8"/>
	</defs>
	<clipPath id="SVGID_6_">
		<use xlink:href="#SVGID_5_"  overflow="visible"/>
	</clipPath>
	<path clip-path="url(#SVGID_6_)" d="M221.193,72.022l0.16,0.293c0.16-0.079,0.293-0.133,0.426-0.133
		c0.426,0,0.693,0.373,0.693,1.012c0,2.344-1.545,4.926-2.93,4.926c-0.799,0-1.278-0.665-1.278-1.704
		c0-1.65,0.612-3.115,2.184-5.032l-0.159-0.293c-0.32,0.133-0.533,0.187-0.986,0.187c-0.426,0-1.117-0.026-1.57-0.08l-0.187-0.026
		c-0.106,0-0.187,0-0.187,0c-0.186,0-0.346,0.026-0.506,0.106c-0.24,0.426-0.399,1.012-0.612,1.864h0.347l0.266-0.666
		c0.133-0.267,0.426-0.426,0.826-0.426c0.079,0,0.213,0,0.426,0c0.133,0.026,0.239,0.026,0.452,0.026
		c0.319,0,0.586-0.026,0.985-0.08c-1.758,1.917-2.424,3.249-2.424,4.819c0,1.226,0.72,2.104,1.758,2.104
		c0.666,0,1.252-0.292,1.998-0.932c0.745-0.692,1.49-1.757,1.996-2.849c0.347-0.799,0.613-1.864,0.613-2.503
		c0-0.905-0.4-1.545-0.986-1.545c-0.213,0-0.398,0.054-0.506,0.187L221.193,72.022"/>
</g>
</svg>
