<?xml version="1.0" encoding="utf-8"?>
<!-- Generator: Adobe Illustrator 16.0.4, SVG Export Plug-In . SVG Version: 6.00 Build 0)  -->
<!DOCTYPE svg PUBLIC "-//W3C//DTD SVG 1.1//EN" "http://www.w3.org/Graphics/SVG/1.1/DTD/svg11.dtd">
<svg version="1.1" id="Layer_1" xmlns="http://www.w3.org/2000/svg" xmlns:xlink="http://www.w3.org/1999/xlink" x="0px" y="0px"
	 width="374.262px" height="166.379px" viewBox="0 0 374.262 166.379" enable-background="new 0 0 374.262 166.379"
	 xml:space="preserve">
<g>
	<g>
		<g>
			<path fill="none" stroke="#000000" stroke-width="3" stroke-miterlimit="10" d="M238.239,11.479
				C220.064,5.018,200.496,1.5,180.104,1.5c-20.525,0-40.219,3.564-58.494,10.107"/>
			<g>
				<polygon points="248.105,15.332 236.335,4.315 237.47,11.275 231.989,15.709 				"/>
			</g>
		</g>
	</g>
	<g>
		<polygon opacity="0.2" fill="#1B1F8A" points="39.812,22.958 20.785,22.958 0.627,35.704 10.113,57.938 27.9,73.945 
			33.829,107.147 56.317,153.985 87.64,165.843 117.93,153.985 144.699,149.243 150.627,118.412 134.916,103.59 141.334,84.103 
			127.505,63.273 150.627,35.704 112.075,18.808 78.143,6.95 		"/>
		
			<line fill="none" stroke="#000000" stroke-width="4" stroke-linecap="round" stroke-miterlimit="10" x1="74.589" y1="52.602" x2="81.408" y2="114.855"/>
		<line fill="none" stroke="#000000" stroke-miterlimit="10" x1="74.589" y1="52.602" x2="112.075" y2="18.808"/>
		<line fill="none" stroke="#000000" stroke-miterlimit="10" x1="74.589" y1="52.602" x2="39.812" y2="22.958"/>
		<line fill="none" stroke="#000000" stroke-miterlimit="10" x1="74.589" y1="52.602" x2="27.9" y2="73.945"/>
		<line fill="none" stroke="#000000" stroke-miterlimit="10" x1="81.408" y1="114.855" x2="33.829" y2="107.147"/>
		<line fill="none" stroke="#000000" stroke-miterlimit="10" x1="81.408" y1="114.855" x2="56.317" y2="153.985"/>
		<line fill="none" stroke="#000000" stroke-miterlimit="10" x1="81.408" y1="114.855" x2="117.93" y2="153.985"/>
		<line fill="none" stroke="#000000" stroke-miterlimit="10" x1="81.408" y1="114.855" x2="134.916" y2="103.59"/>
		<line fill="none" stroke="#000000" stroke-miterlimit="10" x1="74.589" y1="52.602" x2="127.505" y2="63.273"/>
		<line fill="none" stroke="#000000" stroke-miterlimit="10" x1="74.589" y1="52.602" x2="78.143" y2="6.95"/>
		<polygon fill="none" stroke="#000000" stroke-miterlimit="10" points="39.812,22.958 20.785,22.958 0.627,35.704 10.113,57.938 
			27.9,73.945 33.829,107.147 56.317,153.985 87.64,165.843 117.93,153.985 144.699,149.243 150.627,118.412 134.916,103.59 
			141.334,84.103 127.505,63.273 150.627,35.704 112.075,18.808 78.143,6.95 		"/>
	</g>
	<g>
		<polygon opacity="0.2" fill="#1B1F8A" points="262.635,22.958 243.608,22.958 223.45,35.704 232.935,57.938 250.722,73.945 
			256.652,107.147 279.14,153.985 310.462,165.843 340.753,153.985 367.521,149.243 373.451,118.412 357.739,103.59 363.953,82.99 
			350.328,63.273 373.451,35.704 334.898,18.808 300.965,6.95 		"/>
		<line fill="none" stroke="#000000" stroke-miterlimit="10" x1="316.154" y1="35.705" x2="334.898" y2="18.808"/>
		<line fill="none" stroke="#000000" stroke-miterlimit="10" x1="279.107" y1="36.999" x2="262.635" y2="22.958"/>
		<line fill="none" stroke="#000000" stroke-miterlimit="10" x1="275.032" y1="62.832" x2="250.722" y2="73.945"/>
		<line fill="none" stroke="#000000" stroke-miterlimit="10" x1="279.473" y1="110.845" x2="256.652" y2="107.147"/>
		<line fill="none" stroke="#000000" stroke-miterlimit="10" x1="290.695" y1="135.965" x2="279.14" y2="153.985"/>
		<line fill="none" stroke="#000000" stroke-miterlimit="10" x1="322" y1="133.893" x2="340.753" y2="153.985"/>
		<line fill="none" stroke="#000000" stroke-miterlimit="10" x1="328.775" y1="109.688" x2="357.739" y2="103.59"/>
		<line fill="none" stroke="#000000" stroke-miterlimit="10" x1="322" y1="57.561" x2="350.328" y2="63.273"/>
		<line fill="none" stroke="#000000" stroke-miterlimit="10" x1="299.364" y1="27.521" x2="300.965" y2="6.95"/>
		<polygon fill="none" stroke="#000000" stroke-miterlimit="10" points="262.635,22.958 243.608,22.958 223.45,35.704 
			232.935,57.938 250.722,73.945 256.652,107.147 279.14,153.985 310.462,165.843 340.753,153.985 367.521,149.243 373.451,118.412 
			357.739,103.59 363.953,82.99 350.328,63.273 373.451,35.704 334.898,18.808 300.965,6.95 		"/>
		<polygon opacity="0.2" fill="#1B1F8A" points="322,57.561 328.775,109.688 322,133.893 290.695,135.965 279.473,110.845 
			274.603,63.028 278.878,35.705 299.364,27.521 316.155,35.705 		"/>
		<polygon fill="none" stroke="#000000" stroke-miterlimit="10" points="322,57.561 328.775,109.688 322,133.893 290.695,135.965 
			279.473,110.845 274.603,63.028 278.878,35.705 299.364,27.521 316.155,35.705 		"/>
	</g>
	<g>
		<path d="M147.996,13.001c0.906-0.026,1.438-0.054,2.317-0.054c0.853,0,1.544,0.134,1.544,0.319l0.133,1.198h0.586l0.213-2.263
			l-0.105-0.106c-0.586-0.054-0.879-0.08-1.492-0.08c-0.372,0-0.852,0.026-1.73,0.053c-1.145,0.027-1.598,0.027-2.05,0.027
			c-0.56,0-1.251-0.027-2.982-0.054v0.586l0.586,0.054c0.692,0.053,0.745,0.159,0.745,1.544v7.136c0,0.533-0.08,0.772-0.319,0.906
			l-0.506,0.292v0.347c1.571-0.026,1.571-0.026,1.944-0.026h0.532c1.624,0.026,2.263,0.053,3.062,0.053
			c0.826,0,1.332-0.026,2.237-0.053l0.079-0.134l0.188-2.529h-0.64l-0.347,1.518c0,0-0.025,0.026-0.053,0.026
			c-0.506,0.16-0.959,0.24-1.837,0.24c-0.666,0-1.278-0.026-2.104-0.054v-4.233c0.453-0.054,0.72-0.054,1.066-0.054h1.064
			c0.586,0,0.852,0.16,0.905,0.586l0.08,0.799h0.64l-0.027-1.73c0-0.16,0-0.187,0.027-1.704h-0.64l-0.08,0.905
			c-0.026,0.267-0.239,0.346-0.905,0.346h-1.064c-0.506,0-0.746,0-1.066-0.026V13.001"/>
		<path d="M159.632,20.323c0,0.719-0.746,1.305-1.624,1.305c-1.118,0-1.837-1.092-1.837-2.822c0-1.598,0.559-2.396,1.678-2.396
			c0.691,0,1.251,0.293,1.783,0.985V20.323 M161.576,11.51l-0.133-0.08l-1.145,0.347c-0.453,0.133-1.012,0.239-1.918,0.319v0.586
			l0.826,0.053c0.373,0,0.426,0.16,0.426,1.092v1.943l-0.319-0.106c-0.452-0.186-0.879-0.293-1.278-0.293
			c-0.506,0-0.959,0.16-1.385,0.427l-1.145,0.745c-0.905,0.612-1.332,1.518-1.332,2.876c0,2.264,1.172,3.728,3.036,3.728
			c0.347,0,0.612-0.079,0.772-0.187l1.65-1.357l-0.08,1.198l0.08,0.106c0.959-0.026,1.252-0.026,1.438-0.026
			c0.107,0,0.4,0,0.853,0.026c0.106,0,0.399,0,0.745,0V22.32l-0.532-0.026c-0.479-0.026-0.56-0.16-0.56-1.012V11.51z"/>
		<path d="M167.514,23.093c1.944,0,2.423,0.266,2.423,1.278c0,1.092-1.064,1.917-2.477,1.917c-1.41,0-2.369-0.666-2.369-1.651
			c0-0.586,0.346-1.118,0.825-1.357C166.156,23.173,166.742,23.093,167.514,23.093 M167.195,16.17c0.852,0,1.305,0.691,1.305,1.943
			c0,1.118-0.426,1.704-1.278,1.704c-0.825,0-1.331-0.692-1.331-1.891C165.89,16.782,166.343,16.17,167.195,16.17z M171.615,17.021
			l0.08-1.012c-0.666,0.053-0.959,0.08-1.305,0.08c-0.133,0-0.32,0-0.586-0.027c-0.639-0.479-1.385-0.692-2.424-0.692
			c-2.023,0-3.434,1.198-3.434,2.85c0,0.586,0.213,1.118,0.585,1.544c0.293,0.293,0.532,0.453,1.092,0.64l-1.118,0.852
			c-0.16,0.106-0.266,0.453-0.266,0.772c0,0.56,0.266,0.853,1.064,1.065l-1.278,0.772c-0.239,0.133-0.426,0.532-0.426,0.984
			c0,1.358,1.331,2.237,3.435,2.237c2.797,0,4.66-1.438,4.66-3.542c0-1.357-0.746-1.97-2.344-1.97h-0.398
			c-1.572,0.026-2.131,0.053-2.316,0.053c-0.48,0-0.746-0.159-0.746-0.479c0-0.239,0.16-0.426,0.479-0.612
			c0.268,0,0.427,0.026,0.613,0.026c1.118,0,2.13-0.372,2.77-1.012c0.506-0.506,0.719-1.064,0.719-1.837
			c0-0.267-0.027-0.453-0.08-0.772L171.615,17.021z"/>
		<path d="M176.062,18.539h-0.054c-0.106,0-0.532-0.026-0.772-0.053h-0.506c0.054-1.571,0.426-2.21,1.358-2.21
			c0.905,0,1.278,0.639,1.305,2.21L176.062,18.539 M179.417,18.167c0-1.678-1.198-2.797-3.009-2.797
			c-0.532,0-0.959,0.134-1.385,0.373l-0.745,0.453c-1.065,0.612-1.519,1.57-1.519,3.089c0,2.503,1.279,3.86,3.648,3.86
			c0.905,0,1.491-0.159,2.503-0.692l0.347-0.771l-0.187-0.24c-0.745,0.427-1.226,0.56-1.864,0.56c-0.825,0-1.598-0.426-1.997-1.118
			c-0.267-0.453-0.347-0.826-0.372-1.571h2.076c0.905,0,1.625-0.08,2.503-0.319V18.167z"/>
		<path d="M184.316,12.895c0.373-0.054,0.613-0.054,0.906-0.054c1.305,0,1.863,0.532,1.863,1.704c0,1.385-0.692,1.971-2.29,1.971
			h-0.479V12.895 M184.316,17.341h0.479c1.837,0,2.636,0.692,2.636,2.316c0,1.651-0.745,2.37-2.449,2.37
			c-0.24,0-0.399,0-0.666-0.053V17.341z M185.115,12.068c-0.373,0-1.465,0.027-1.73,0.027c-0.213,0-0.692,0-1.411-0.027
			l-1.252-0.026v0.586l0.586,0.054c0.72,0.053,0.745,0.159,0.745,1.544v7.136c0,0.533-0.053,0.772-0.293,0.906l-0.531,0.292v0.347
			c1.145-0.026,1.57-0.026,2.023-0.026c0.239,0,0.559,0,0.932,0c0.852,0.026,1.277,0.026,1.305,0.026
			c2.557,0,4.313-1.411,4.313-3.462c0-0.852-0.319-1.544-0.878-1.943c-0.56-0.399-1.092-0.56-2.371-0.64
			c1.332-0.452,1.785-0.691,2.291-1.145c0.373-0.347,0.586-0.932,0.586-1.518c0-1.465-0.986-2.157-2.982-2.157L185.115,12.068z"/>
		<path d="M194.674,18.539h-0.08c-0.079,0-0.506-0.026-0.745-0.053h-0.506c0.026-1.571,0.426-2.21,1.331-2.21
			s1.305,0.639,1.331,2.21L194.674,18.539 M198.029,18.167c0-1.678-1.197-2.797-3.008-2.797c-0.56,0-0.959,0.134-1.412,0.373
			l-0.745,0.453c-1.038,0.612-1.491,1.57-1.491,3.089c0,2.503,1.252,3.86,3.621,3.86c0.905,0,1.491-0.159,2.529-0.692l0.347-0.771
			l-0.187-0.24c-0.746,0.427-1.225,0.56-1.863,0.56c-0.826,0-1.625-0.426-1.998-1.118c-0.266-0.453-0.373-0.826-0.398-1.571h2.076
			c0.906,0,1.625-0.08,2.529-0.319V18.167z"/>
		<path d="M202.316,22.906h1.358c0.239-0.719,0.399-1.118,0.612-1.545l2.023-4.579c0.133-0.347,0.293-0.479,0.56-0.533l0.479-0.079
			v-0.586l-1.518,0.026c-0.799,0-0.959,0-1.545-0.026v0.586l0.613,0.026c0.213,0.026,0.372,0.133,0.372,0.293
			c0,0.187-0.054,0.399-0.159,0.639l-0.959,2.396c-0.16,0.347-0.293,0.692-0.56,1.278l-1.411-3.515
			c-0.16-0.399-0.213-0.64-0.213-0.799c0-0.16,0.133-0.267,0.373-0.293l0.639-0.026v-0.586l-2.051,0.026
			c-0.213,0-0.452,0-2.05-0.026v0.586l0.399,0.026c0.266,0.053,0.453,0.319,0.746,0.985L202.316,22.906"/>
		<path d="M211.476,18.539h-0.08c-0.08,0-0.506-0.026-0.745-0.053h-0.506c0.026-1.571,0.426-2.21,1.331-2.21
			c0.906,0,1.305,0.639,1.332,2.21L211.476,18.539 M214.832,18.167c0-1.678-1.198-2.797-3.01-2.797c-0.559,0-0.984,0.134-1.41,0.373
			l-0.746,0.453c-1.039,0.612-1.491,1.57-1.491,3.089c0,2.503,1.251,3.86,3.622,3.86c0.904,0,1.49-0.159,2.529-0.692l0.346-0.771
			l-0.186-0.24c-0.773,0.427-1.226,0.56-1.865,0.56c-0.824,0-1.623-0.426-1.996-1.118c-0.267-0.453-0.373-0.826-0.4-1.571h2.078
			c0.904,0,1.623-0.08,2.529-0.319V18.167z"/>
		<path d="M218.931,11.43l-1.117,0.347c-0.48,0.133-1.012,0.239-1.944,0.319v0.586l0.853,0.053c0.346,0,0.398,0.16,0.398,1.092
			v7.456c0,0.852-0.079,0.985-0.559,1.012l-0.56,0.026v0.586l2.051-0.026c0.319,0,1.092,0,2.157,0.026V22.32l-0.56-0.026
			c-0.506-0.026-0.587-0.16-0.587-1.012V11.51L218.931,11.43"/>
	</g>
	<g>
		<defs>
			<rect id="SVGID_1_" x="83.23" y="79.343" width="6" height="8"/>
		</defs>
		<clipPath id="SVGID_2_">
			<use xlink:href="#SVGID_1_"  overflow="visible"/>
		</clipPath>
		<path clip-path="url(#SVGID_2_)" d="M85.015,82.789c0.293-1.092,0.611-1.784,1.064-2.184c0.293-0.266,0.771-0.452,1.145-0.452
			c0.48,0,0.772,0.319,0.772,0.825c0,0.692-0.56,1.438-1.384,1.837c-0.453,0.24-1.013,0.399-1.731,0.56L85.015,82.789
			 M88.449,85.372l-0.398,0.267c-0.826,0.612-1.598,0.932-2.157,0.932c-0.745,0-1.225-0.586-1.225-1.544
			c0-0.399,0.054-0.826,0.133-1.278l1.306-0.319c0.266-0.08,0.691-0.24,1.091-0.399c1.358-0.586,1.971-1.332,1.971-2.317
			c0-0.745-0.532-1.225-1.331-1.225c-1.039,0-2.797,1.092-3.408,2.104c-0.48,0.799-0.959,2.689-0.959,3.755
			c0,1.251,0.692,1.97,1.838,1.97c0.904,0,1.811-0.452,3.274-1.624L88.449,85.372z"/>
	</g>
	<g>
		<defs>
			<rect id="SVGID_3_" x="295.464" y="74.019" width="10" height="17"/>
		</defs>
		<clipPath id="SVGID_4_">
			<use xlink:href="#SVGID_3_"  overflow="visible"/>
		</clipPath>
		<path clip-path="url(#SVGID_4_)" d="M303.107,80.128c0.08-0.293,0.186-0.666,0.266-0.879l-0.053-0.106l-0.107,0.026
			c-0.398,0.08-0.559,0.106-1.33,0.106h-0.268l0.347-1.783c0.239-1.358,0.692-1.971,1.411-1.971c0.479,0,0.906,0.239,1.145,0.612
			l0.16-0.054c0.08-0.266,0.24-0.745,0.373-1.064l0.08-0.24c-0.267-0.106-0.746-0.213-1.119-0.213c-0.159,0-0.426,0.054-0.559,0.106
			c-0.373,0.187-1.678,1.146-2.051,1.545c-0.346,0.346-0.532,0.825-0.719,1.73l-0.239,1.252c-0.64,0.319-0.958,0.452-1.358,0.585
			l-0.08,0.347h1.279l-0.134,0.905c-0.479,3.089-1.065,6.044-1.411,7.136c-0.293,0.933-0.772,1.438-1.332,1.438
			c-0.372,0-0.532-0.106-0.824-0.453l-0.24,0.054c-0.053,0.373-0.267,1.118-0.346,1.278c0.133,0.079,0.372,0.133,0.559,0.133
			c0.639,0,1.491-0.506,2.131-1.252c0.958-1.145,1.305-2.263,2.476-7.828c0.054-0.213,0.159-0.799,0.293-1.411H303.107"/>
	</g>
</g>
<g>
	<g>
		<polyline fill="none" stroke="#000000" stroke-width="0.5" stroke-miterlimit="10" points="98.723,132.93 98.453,133.893 
			97.456,133.959 		"/>
		
			<line fill="none" stroke="#000000" stroke-width="0.5" stroke-miterlimit="10" stroke-dasharray="1.9582,1.9582" x1="95.501" y1="134.088" x2="69.123" y2="135.834"/>
		<polyline fill="none" stroke="#000000" stroke-width="0.5" stroke-miterlimit="10" points="68.146,135.898 67.148,135.965 
			66.741,135.052 		"/>
		<polyline fill="none" stroke="#000000" stroke-width="0.5" stroke-miterlimit="10" stroke-dasharray="1.9849,1.9849" points="
			65.931,133.239 55.927,110.845 51.057,63.028 55.024,37.674 		"/>
		<polyline fill="none" stroke="#000000" stroke-width="0.5" stroke-miterlimit="10" points="55.177,36.693 55.332,35.705 
			56.261,35.334 		"/>
		
			<line fill="none" stroke="#000000" stroke-width="0.5" stroke-miterlimit="10" stroke-dasharray="1.8236,1.8236" x1="57.954" y1="34.657" x2="74.042" y2="28.23"/>
		<polyline fill="none" stroke="#000000" stroke-width="0.5" stroke-miterlimit="10" points="74.889,27.893 75.817,27.521 
			76.716,27.96 		"/>
		
			<line fill="none" stroke="#000000" stroke-width="0.5" stroke-miterlimit="10" stroke-dasharray="1.8532,1.8532" x1="78.382" y1="28.771" x2="90.876" y2="34.861"/>
		<polyline fill="none" stroke="#000000" stroke-width="0.5" stroke-miterlimit="10" points="91.709,35.267 92.608,35.705 
			92.867,36.671 		"/>
		<polyline fill="none" stroke="#000000" stroke-width="0.5" stroke-miterlimit="10" stroke-dasharray="2.0066,2.0066" points="
			93.385,38.609 98.453,57.561 105.229,109.688 98.993,131.964 		"/>
	</g>
</g>
</svg>
