<?xml version="1.0" encoding="utf-8"?>
<!-- Generator: Adobe Illustrator 16.0.4, SVG Export Plug-In . SVG Version: 6.00 Build 0)  -->
<!DOCTYPE svg PUBLIC "-//W3C//DTD SVG 1.1//EN" "http://www.w3.org/Graphics/SVG/1.1/DTD/svg11.dtd">
<svg version="1.1" id="Layer_1" xmlns="http://www.w3.org/2000/svg" xmlns:xlink="http://www.w3.org/1999/xlink" x="0px" y="0px"
	 width="349.88px" height="119.336px" viewBox="0 0 349.88 119.336" enable-background="new 0 0 349.88 119.336"
	 xml:space="preserve">
<g>
	<g>
		<polygon opacity="0.2" fill="#1B1F8A" points="52.667,118.825 19.741,90.492 0.667,45.513 29.396,35.193 31.167,16.367 
			54.48,0.658 68.487,16.367 100.167,6.158 107.579,35.193 136.333,50.825 117.234,77.493 109.333,99.158 90.182,116.492 		"/>
		<polygon fill="none" stroke="#000000" stroke-miterlimit="10" points="52.667,118.825 19.741,90.492 0.667,45.513 29.396,35.193 
			31.167,16.367 54.48,0.658 68.487,16.367 100.167,6.158 107.579,35.193 136.333,50.825 117.234,77.493 109.333,99.158 
			90.182,116.492 		"/>
		<line fill="none" stroke="#000000" stroke-miterlimit="10" x1="76.167" y1="55.658" x2="68.487" y2="16.367"/>
		<line fill="none" stroke="#000000" stroke-miterlimit="10" x1="76.167" y1="55.658" x2="107.579" y2="35.193"/>
		<line fill="none" stroke="#000000" stroke-miterlimit="10" x1="76.167" y1="55.658" x2="117.234" y2="77.493"/>
		<line fill="none" stroke="#000000" stroke-miterlimit="10" x1="76.167" y1="55.658" x2="90.182" y2="116.492"/>
		<line fill="none" stroke="#000000" stroke-miterlimit="10" x1="76.167" y1="55.658" x2="52.667" y2="118.825"/>
		<line fill="none" stroke="#000000" stroke-miterlimit="10" x1="76.167" y1="55.658" x2="19.741" y2="90.492"/>
		<line fill="none" stroke="#000000" stroke-miterlimit="10" x1="76.167" y1="55.658" x2="29.396" y2="35.193"/>
		<circle cx="76.167" cy="55.658" r="3.671"/>
	</g>
	<g>
		<defs>
			<rect id="SVGID_1_" x="76.774" y="40.104" width="8" height="8"/>
		</defs>
		<clipPath id="SVGID_2_">
			<use xlink:href="#SVGID_1_"  overflow="visible"/>
		</clipPath>
		<path clip-path="url(#SVGID_2_)" d="M81.86,41.181l0.16,0.293c0.16-0.079,0.293-0.133,0.426-0.133
			c0.426,0,0.692,0.373,0.692,1.012c0,2.344-1.544,4.926-2.929,4.926c-0.799,0-1.278-0.665-1.278-1.704
			c0-1.65,0.613-3.115,2.184-5.032l-0.16-0.293c-0.32,0.133-0.533,0.187-0.985,0.187c-0.426,0-1.118-0.026-1.571-0.08l-0.187-0.026
			c-0.106,0-0.187,0-0.187,0c-0.186,0-0.346,0.026-0.506,0.106c-0.24,0.426-0.399,1.012-0.612,1.864h0.346l0.266-0.666
			c0.133-0.267,0.426-0.426,0.826-0.426c0.08,0,0.213,0,0.426,0c0.133,0.026,0.24,0.026,0.453,0.026c0.32,0,0.586-0.026,0.985-0.08
			c-1.757,1.917-2.423,3.249-2.423,4.819c0,1.226,0.719,2.104,1.758,2.104c0.666,0,1.251-0.292,1.997-0.932
			c0.746-0.692,1.491-1.757,1.997-2.849c0.346-0.799,0.612-1.864,0.612-2.503c0-0.905-0.399-1.545-0.985-1.545
			c-0.213,0-0.399,0.054-0.506,0.187L81.86,41.181"/>
	</g>
</g>
<g>
	<g>
		<polygon opacity="0.2" fill="#1B1F8A" points="265.477,118.825 232.551,90.492 213.477,45.513 242.206,35.193 243.977,16.367 
			267.291,0.658 281.298,16.367 312.977,6.158 320.39,35.193 349.144,50.825 330.044,77.493 322.144,99.158 302.992,116.492 		"/>
		<polygon fill="none" stroke="#000000" stroke-miterlimit="10" points="265.477,118.825 232.551,90.492 213.477,45.513 
			242.206,35.193 243.977,16.367 267.291,0.658 281.298,16.367 312.977,6.158 320.39,35.193 349.144,50.825 330.044,77.493 
			322.144,99.158 302.992,116.492 		"/>
		<line fill="none" stroke="#000000" stroke-miterlimit="10" x1="283.766" y1="28.996" x2="281.298" y2="16.367"/>
		<line fill="none" stroke="#000000" stroke-miterlimit="10" x1="311.736" y1="40.831" x2="320.39" y2="35.193"/>
		<line fill="none" stroke="#000000" stroke-miterlimit="10" x1="312.965" y1="68.413" x2="330.044" y2="77.493"/>
		<line fill="none" stroke="#000000" stroke-miterlimit="10" x1="295.076" y1="82.129" x2="302.992" y2="116.492"/>
		<line fill="none" stroke="#000000" stroke-miterlimit="10" x1="279.503" y1="81.125" x2="265.477" y2="118.825"/>
		<line fill="none" stroke="#000000" stroke-miterlimit="10" x1="265.591" y1="70.095" x2="232.551" y2="90.492"/>
		<line fill="none" stroke="#000000" stroke-miterlimit="10" x1="264.088" y1="44.768" x2="242.206" y2="35.193"/>
		<polygon fill="none" stroke="#000000" stroke-miterlimit="10" points="283.766,28.996 264.088,44.768 265.591,70.095 
			279.503,81.125 295.076,82.129 312.965,68.413 311.736,40.831 		"/>
		<polygon opacity="0.2" fill="#1B1F8A" points="264.088,44.768 265.591,70.095 279.503,81.125 295.076,82.129 312.965,68.413 
			311.736,40.831 283.766,28.996 		"/>
	</g>
	<g>
		<defs>
			<rect id="SVGID_3_" x="282.648" y="48.78" width="10" height="17"/>
		</defs>
		<clipPath id="SVGID_4_">
			<use xlink:href="#SVGID_3_"  overflow="visible"/>
		</clipPath>
		<path clip-path="url(#SVGID_4_)" d="M290.29,54.89c0.08-0.293,0.187-0.666,0.267-0.879l-0.054-0.106l-0.106,0.026
			c-0.399,0.08-0.559,0.106-1.331,0.106h-0.267l0.346-1.783c0.24-1.358,0.692-1.971,1.412-1.971c0.479,0,0.905,0.239,1.145,0.612
			l0.16-0.054c0.08-0.266,0.239-0.745,0.373-1.064l0.08-0.24c-0.267-0.106-0.746-0.213-1.119-0.213c-0.16,0-0.426,0.054-0.559,0.106
			c-0.373,0.187-1.677,1.146-2.05,1.545c-0.346,0.346-0.533,0.825-0.719,1.73l-0.24,1.252c-0.639,0.319-0.958,0.452-1.358,0.585
			l-0.08,0.347h1.278l-0.133,0.905c-0.479,3.089-1.065,6.044-1.411,7.136c-0.293,0.933-0.772,1.438-1.332,1.438
			c-0.373,0-0.533-0.106-0.825-0.453l-0.24,0.054c-0.053,0.373-0.267,1.118-0.346,1.278c0.133,0.079,0.373,0.133,0.559,0.133
			c0.639,0,1.491-0.506,2.13-1.252c0.958-1.145,1.305-2.263,2.476-7.828c0.053-0.213,0.16-0.799,0.293-1.411H290.29"/>
	</g>
</g>
<g>
	<g>
		<path fill="none" stroke="#000000" stroke-width="3" stroke-miterlimit="10" d="M227.278,19.637
			c-18.174-6.461-37.744-9.979-58.134-9.979c-20.525,0-40.219,3.564-58.494,10.107"/>
		<g>
			<polygon points="237.145,23.491 225.375,12.474 226.51,19.434 221.028,23.868 			"/>
		</g>
	</g>
</g>
<g>
	<path d="M132.623,20.639v-0.586c-0.666,0-1.278,0-1.465,0.026c-0.532,0-0.905,0-1.091,0c-0.24,0-0.24,0-2.53-0.026v0.586
		l0.666,0.053c0.399,0.027,0.639,0.32,0.985,1.146l3.781,9.08h1.225c0.16-0.427,0.213-0.586,0.293-0.772
		c0.08-0.239,0.133-0.426,0.187-0.479c0-0.053,0.053-0.187,0.106-0.319l3.328-7.908c0.187-0.506,0.4-0.719,0.746-0.746l0.506-0.053
		v-0.586c-1.704,0.026-1.704,0.026-1.864,0.026c-0.16,0-0.426,0-0.878,0c-0.133-0.026-0.533-0.026-0.932-0.026v0.586l0.719,0.053
		c0.373,0.027,0.586,0.16,0.586,0.399c0,0.24-0.16,0.746-0.479,1.571l-2.264,5.618l-2.503-6.15
		c-0.319-0.825-0.319-0.853-0.319-1.146c0-0.133,0.186-0.293,0.399-0.293L132.623,20.639"/>
	<path d="M141.81,26.523h-0.08c-0.08,0-0.533,0-0.746-0.027l-0.533-0.026c0.053-1.571,0.453-2.21,1.358-2.21s1.278,0.639,1.331,2.21
		L141.81,26.523 M145.138,26.177c0-1.704-1.171-2.796-2.982-2.796c-0.56,0-0.985,0.106-1.412,0.373l-0.746,0.426
		c-1.038,0.64-1.518,1.598-1.518,3.089c0,2.53,1.278,3.861,3.648,3.861c0.905,0,1.491-0.16,2.503-0.666l0.373-0.772l-0.213-0.239
		c-0.746,0.426-1.225,0.56-1.837,0.56c-0.853,0-1.625-0.453-2.024-1.119c-0.24-0.452-0.346-0.825-0.373-1.57h2.077
		c0.905,0,1.625-0.08,2.503-0.319V26.177z"/>
	<path d="M149.212,23.381l-1.119,0.347c-0.506,0.159-0.799,0.213-1.784,0.346v0.56l0.719,0.053c0.346,0.027,0.399,0.187,0.399,1.119
		v3.487c0,0.853-0.08,0.959-0.559,1.013l-0.559,0.026v0.586l2.05-0.054c0.186,0,0.239,0,2.396,0.054v-0.586l-0.612-0.026
		c-0.692-0.054-0.772-0.134-0.772-1.013v-3.168c0-0.479,0.639-1.012,1.278-1.012c0.399,0,0.666,0.186,0.905,0.585l0.373-0.159
		l0.08-2.051c-0.16-0.079-0.373-0.106-0.586-0.106c-0.453,0-0.746,0.187-1.358,0.853l-0.692,0.745v-1.491L149.212,23.381"/>
	<path d="M157.173,29.905l-0.133-0.293c-0.32,0.159-0.479,0.213-0.719,0.213c-0.746,0-0.985-0.267-0.985-1.039v-3.78h1.678
		l0.133-1.039l-1.811,0.106v-0.932c0-0.853,0.053-1.358,0.187-2.157l-0.213-0.159c-0.639,0.293-1.145,0.479-1.944,0.799
		c0.053,0.825,0.053,1.118,0.053,1.464v0.959l-1.039,0.666v0.346l1.012-0.053v4.127c0,1.411,0.586,1.997,1.971,1.997
		c0.479,0,0.879-0.106,1.039-0.267L157.173,29.905"/>
	<path d="M161.301,26.523h-0.08c-0.08,0-0.506,0-0.746-0.027l-0.506-0.026c0.053-1.571,0.426-2.21,1.332-2.21
		s1.305,0.639,1.331,2.21L161.301,26.523 M164.656,26.177c0-1.704-1.198-2.796-3.009-2.796c-0.559,0-0.958,0.106-1.385,0.373
		l-0.772,0.426c-1.039,0.64-1.491,1.598-1.491,3.089c0,2.53,1.251,3.861,3.621,3.861c0.905,0,1.518-0.16,2.53-0.666l0.346-0.772
		l-0.187-0.239c-0.746,0.426-1.225,0.56-1.864,0.56c-0.826,0-1.598-0.453-1.997-1.119c-0.267-0.452-0.346-0.825-0.399-1.57h2.104
		c0.905,0,1.598-0.08,2.503-0.319V26.177z"/>
	<path d="M168.41,27.535l-1.757,2.21c-0.319,0.399-0.612,0.56-1.092,0.586v0.532h1.438c0.453-0.719,0.639-0.958,0.825-1.225
		l1.012-1.411l1.598,2.689l1.251-0.054c0.639,0.026,0.746,0.026,1.225,0.054v-0.586c-0.506-0.054-0.825-0.347-1.384-1.252
		l-1.412-2.423l1.544-1.811c0.506-0.586,0.666-0.666,1.251-0.692v-0.586h-1.518l-1.731,2.396l-0.825-1.357
		c-0.373-0.613-0.666-0.959-0.985-1.226c-0.533,0.134-1.731,0.399-2.316,0.506l0.133,0.586c0.08-0.026,0.187-0.026,0.24-0.026
		c0.533,0,0.799,0.213,1.225,0.932L168.41,27.535"/>
	<path d="M177.437,20.905c0.373-0.054,0.612-0.054,0.932-0.054c1.278,0,1.837,0.506,1.837,1.678c0,1.385-0.692,1.97-2.29,1.97
		h-0.479V20.905 M177.437,25.325h0.479c1.837,0,2.636,0.719,2.636,2.343c0,1.651-0.746,2.37-2.423,2.37c-0.24,0-0.426,0-0.692-0.054
		V25.325z M178.236,20.053c-0.373,0.026-1.464,0.026-1.731,0.026c-0.213,0-0.666,0-1.411,0l-1.251-0.026v0.586l0.586,0.053
		c0.719,0.054,0.772,0.16,0.772,1.545v7.109c0,0.56-0.08,0.799-0.319,0.905l-0.506,0.293v0.373c1.145-0.027,1.544-0.054,1.997-0.054
		c0.24,0,0.56,0,0.959,0.026c0.825,0,1.251,0.027,1.305,0.027c2.529,0,4.287-1.438,4.287-3.488c0-0.825-0.293-1.545-0.852-1.944
		c-0.586-0.372-1.119-0.532-2.396-0.612c1.331-0.479,1.811-0.692,2.29-1.145c0.373-0.373,0.613-0.933,0.613-1.545
		c0-1.438-0.985-2.13-3.009-2.13H178.236z"/>
	<path d="M187.795,26.523h-0.053c-0.106,0-0.532,0-0.772-0.027l-0.506-0.026c0.054-1.571,0.426-2.21,1.358-2.21
		c0.905,0,1.278,0.639,1.305,2.21L187.795,26.523 M191.15,26.177c0-1.704-1.198-2.796-3.009-2.796c-0.559,0-0.958,0.106-1.385,0.373
		l-0.745,0.426c-1.065,0.64-1.518,1.598-1.518,3.089c0,2.53,1.278,3.861,3.648,3.861c0.905,0,1.491-0.16,2.503-0.666l0.346-0.772
		l-0.187-0.239c-0.745,0.426-1.225,0.56-1.864,0.56c-0.825,0-1.598-0.453-1.997-1.119c-0.266-0.452-0.346-0.825-0.373-1.57h2.077
		c0.905,0,1.625-0.08,2.503-0.319V26.177z"/>
	<path d="M195.437,30.917h1.358c0.267-0.719,0.426-1.118,0.613-1.545l2.023-4.58c0.16-0.346,0.319-0.479,0.586-0.532l0.479-0.08
		v-0.612l-1.545,0.054c-0.799-0.027-0.932-0.027-1.544-0.054v0.612l0.612,0.027c0.213,0.026,0.373,0.133,0.373,0.266
		c0,0.187-0.053,0.426-0.16,0.666l-0.958,2.396c-0.133,0.346-0.292,0.666-0.559,1.278l-1.385-3.516
		c-0.16-0.399-0.24-0.639-0.24-0.825c0-0.159,0.133-0.239,0.373-0.266l0.639-0.027v-0.612l-2.05,0.054c-0.186,0-0.453,0-2.05-0.054
		v0.612l0.399,0.027c0.267,0.026,0.479,0.292,0.746,0.984L195.437,30.917"/>
	<path d="M204.704,26.523h-0.081c-0.08,0-0.505,0-0.745-0.027l-0.506-0.026c0.026-1.571,0.426-2.21,1.331-2.21
		s1.305,0.639,1.332,2.21L204.704,26.523 M208.059,26.177c0-1.704-1.199-2.796-3.01-2.796c-0.559,0-0.985,0.106-1.411,0.373
		l-0.746,0.426c-1.038,0.64-1.491,1.598-1.491,3.089c0,2.53,1.251,3.861,3.621,3.861c0.906,0,1.491-0.16,2.529-0.666l0.346-0.772
		l-0.186-0.239c-0.746,0.426-1.225,0.56-1.864,0.56c-0.825,0-1.624-0.453-1.997-1.119c-0.267-0.452-0.373-0.825-0.399-1.57h2.077
		c0.905,0,1.624-0.08,2.53-0.319V26.177z"/>
	<path d="M212.079,19.414l-1.145,0.372c-0.479,0.134-1.012,0.213-1.917,0.32v0.585l0.826,0.027c0.346,0.026,0.426,0.187,0.426,1.118
		v7.455c0,0.853-0.08,0.959-0.586,1.013l-0.559,0.026v0.586l2.05-0.054c0.32,0,1.091,0.026,2.157,0.054v-0.586l-0.559-0.026
		c-0.48-0.054-0.56-0.16-0.56-1.013v-9.771L212.079,19.414"/>
</g>
<g>
	<g>
		<polyline fill="none" stroke="#000000" stroke-width="0.5" stroke-miterlimit="10" points="71.827,29.386 70.906,28.996 
			70.126,29.622 		"/>
		
			<line fill="none" stroke="#000000" stroke-width="0.5" stroke-miterlimit="10" stroke-dasharray="2.1108,2.1108" x1="68.479" y1="30.941" x2="52.832" y2="43.482"/>
		<polyline fill="none" stroke="#000000" stroke-width="0.5" stroke-miterlimit="10" points="52.008,44.142 51.228,44.768 
			51.287,45.766 		"/>
		
			<line fill="none" stroke="#000000" stroke-width="0.5" stroke-miterlimit="10" stroke-dasharray="2.1247,2.1247" x1="51.413" y1="47.887" x2="52.609" y2="68.036"/>
		<polyline fill="none" stroke="#000000" stroke-width="0.5" stroke-miterlimit="10" points="52.672,69.097 52.731,70.095 
			53.515,70.716 		"/>
		<polyline fill="none" stroke="#000000" stroke-width="0.5" stroke-miterlimit="10" stroke-dasharray="1.9964,1.9964" points="
			55.08,71.956 66.643,81.125 82.216,82.129 98.52,69.628 		"/>
		<polyline fill="none" stroke="#000000" stroke-width="0.5" stroke-miterlimit="10" points="99.312,69.021 100.105,68.413 
			100.061,67.414 		"/>
		
			<line fill="none" stroke="#000000" stroke-width="0.5" stroke-miterlimit="10" stroke-dasharray="1.97,1.97" x1="99.973" y1="65.446" x2="98.965" y2="42.813"/>
		<polyline fill="none" stroke="#000000" stroke-width="0.5" stroke-miterlimit="10" points="98.921,41.83 98.876,40.831 
			97.956,40.441 		"/>
		
			<line fill="none" stroke="#000000" stroke-width="0.5" stroke-miterlimit="10" stroke-dasharray="1.8914,1.8914" x1="96.213" y1="39.704" x2="72.698" y2="29.754"/>
	</g>
</g>
</svg>
