<?xml version="1.0" encoding="utf-8"?>
<!-- Generator: Adobe Illustrator 16.0.4, SVG Export Plug-In . SVG Version: 6.00 Build 0)  -->
<!DOCTYPE svg PUBLIC "-//W3C//DTD SVG 1.1//EN" "http://www.w3.org/Graphics/SVG/1.1/DTD/svg11.dtd">
<svg version="1.1" id="Layer_1" xmlns="http://www.w3.org/2000/svg" xmlns:xlink="http://www.w3.org/1999/xlink" x="0px" y="0px"
	 width="374.264px" height="166.379px" viewBox="0 0 374.264 166.379" enable-background="new 0 0 374.264 166.379"
	 xml:space="preserve">
<g>
	<g>
		<g>
			<path fill="none" stroke="#000000" stroke-width="3" stroke-miterlimit="10" d="M238.239,11.479
				C220.064,5.018,200.496,1.5,180.104,1.5c-20.524,0-40.22,3.564-58.494,10.107"/>
			<g>
				<polygon points="248.105,15.332 236.336,4.315 237.471,11.275 231.989,15.709 				"/>
			</g>
		</g>
	</g>
	<g>
		<polygon opacity="0.2" fill="#1B1F8A" enable-background="new    " points="39.812,22.958 20.785,22.958 0.627,35.704 2,67.938 
			27.9,87.945 27.9,87.945 56.317,153.984 87.64,165.843 117.93,153.984 144.699,149.243 150.627,118.412 134.916,103.59 
			141.166,83.188 127.505,63.273 150.627,35.704 112.075,18.808 78.143,6.95 		"/>
		
			<line fill="none" stroke="#000000" stroke-width="4" stroke-linecap="round" stroke-miterlimit="10" x1="74.589" y1="52.602" x2="81.408" y2="114.855"/>
		<line fill="none" stroke="#000000" stroke-miterlimit="10" x1="74.589" y1="52.602" x2="112.075" y2="18.808"/>
		<line fill="none" stroke="#000000" stroke-miterlimit="10" x1="74.589" y1="52.602" x2="39.812" y2="22.958"/>
		<line fill="none" stroke="#000000" stroke-miterlimit="10" x1="74.589" y1="52.602" x2="27.9" y2="87.945"/>
		<line fill="none" stroke="#000000" stroke-miterlimit="10" x1="81.408" y1="114.855" x2="27.9" y2="87.945"/>
		<line fill="none" stroke="#000000" stroke-miterlimit="10" x1="81.408" y1="114.855" x2="56.317" y2="153.984"/>
		<line fill="none" stroke="#000000" stroke-miterlimit="10" x1="81.408" y1="114.855" x2="117.93" y2="153.984"/>
		<line fill="none" stroke="#000000" stroke-miterlimit="10" x1="81.408" y1="114.855" x2="134.916" y2="103.59"/>
		<line fill="none" stroke="#000000" stroke-miterlimit="10" x1="74.589" y1="52.602" x2="127.505" y2="63.273"/>
		<line fill="none" stroke="#000000" stroke-miterlimit="10" x1="74.589" y1="52.602" x2="78.143" y2="6.95"/>
		<polygon fill="none" stroke="#000000" stroke-miterlimit="10" points="39.812,22.958 20.785,22.958 0.627,35.704 2,67.938 
			27.9,87.945 27.9,87.945 56.317,153.984 87.64,165.843 117.93,153.984 144.699,149.243 150.627,118.412 134.916,103.59 
			141.166,83.188 127.505,63.273 150.627,35.704 112.075,18.808 78.143,6.95 		"/>
	</g>
	<g>
		<g>
			<g>
				<defs>
					<rect id="SVGID_1_" x="83.23" y="79.343" width="6" height="8"/>
				</defs>
				<clipPath id="SVGID_2_">
					<use xlink:href="#SVGID_1_"  overflow="visible"/>
				</clipPath>
				<path clip-path="url(#SVGID_2_)" d="M85.015,82.789c0.293-1.092,0.61-1.784,1.063-2.184c0.293-0.266,0.771-0.452,1.146-0.452
					c0.479,0,0.771,0.319,0.771,0.825c0,0.692-0.561,1.438-1.385,1.837c-0.452,0.24-1.013,0.399-1.73,0.56L85.015,82.789
					 M88.449,85.372l-0.398,0.267c-0.825,0.612-1.598,0.932-2.156,0.932c-0.745,0-1.226-0.586-1.226-1.543
					c0-0.398,0.055-0.825,0.133-1.277l1.307-0.319c0.267-0.08,0.69-0.24,1.092-0.399c1.357-0.586,1.971-1.332,1.971-2.317
					c0-0.745-0.531-1.225-1.331-1.225c-1.039,0-2.797,1.092-3.407,2.104c-0.479,0.799-0.959,2.689-0.959,3.756
					c0,1.252,0.691,1.971,1.838,1.971c0.903,0,1.812-0.452,3.273-1.625L88.449,85.372z"/>
			</g>
		</g>
	</g>
	<polygon opacity="0.2" fill="#1B1F8A" enable-background="new    " points="262.635,22.958 243.608,22.958 223.45,35.704 
		224.936,67.938 250.723,87.945 250.723,87.945 279.141,153.984 310.463,165.843 340.754,153.984 367.521,149.243 373.451,118.412 
		357.74,103.59 364.043,83.483 350.328,63.273 373.451,35.704 334.898,18.808 300.966,6.95 	"/>
	<line fill="none" stroke="#000000" stroke-miterlimit="10" x1="304.23" y1="86.396" x2="334.898" y2="18.808"/>
	<line fill="none" stroke="#000000" stroke-miterlimit="10" x1="304.23" y1="86.396" x2="262.635" y2="22.958"/>
	<line fill="none" stroke="#000000" stroke-miterlimit="10" x1="304.23" y1="86.396" x2="250.723" y2="87.945"/>
	<line fill="none" stroke="#000000" stroke-miterlimit="10" x1="304.23" y1="86.396" x2="250.723" y2="87.945"/>
	<line fill="none" stroke="#000000" stroke-miterlimit="10" x1="304.23" y1="86.396" x2="279.141" y2="153.984"/>
	<line fill="none" stroke="#000000" stroke-miterlimit="10" x1="304.23" y1="86.396" x2="340.754" y2="153.984"/>
	<line fill="none" stroke="#000000" stroke-miterlimit="10" x1="304.23" y1="86.396" x2="357.74" y2="103.59"/>
	<line fill="none" stroke="#000000" stroke-miterlimit="10" x1="304.23" y1="86.396" x2="350.328" y2="63.273"/>
	<line fill="none" stroke="#000000" stroke-miterlimit="10" x1="304.23" y1="86.396" x2="300.966" y2="6.95"/>
	<polygon fill="none" stroke="#000000" stroke-miterlimit="10" points="262.635,22.958 243.608,22.958 223.45,35.704 
		224.936,67.938 250.723,87.945 250.723,87.945 279.141,153.984 310.463,165.843 340.754,153.984 367.521,149.243 373.451,118.412 
		357.74,103.59 364.043,83.483 350.328,63.273 373.451,35.704 334.898,18.808 300.966,6.95 	"/>
</g>
<circle cx="304.23" cy="86.396" r="5.318"/>
<g>
	<g>
		<defs>
			<rect id="SVGID_3_" x="301.108" y="99.945" width="8" height="8"/>
		</defs>
		<clipPath id="SVGID_4_">
			<use xlink:href="#SVGID_3_"  overflow="visible"/>
		</clipPath>
		<path clip-path="url(#SVGID_4_)" d="M306.194,101.021l0.159,0.293c0.159-0.078,0.293-0.133,0.428-0.133
			c0.426,0,0.69,0.373,0.69,1.012c0,2.345-1.544,4.927-2.929,4.927c-0.799,0-1.278-0.665-1.278-1.704
			c0-1.65,0.613-3.115,2.185-5.032l-0.16-0.293c-0.319,0.134-0.532,0.187-0.984,0.187c-0.426,0-1.119-0.025-1.571-0.079
			l-0.187-0.026c-0.106,0-0.188,0-0.188,0c-0.187,0-0.347,0.026-0.506,0.105c-0.239,0.427-0.398,1.013-0.611,1.865h0.346
			l0.267-0.666c0.134-0.268,0.427-0.427,0.825-0.427c0.08,0,0.213,0,0.426,0c0.134,0.026,0.24,0.026,0.453,0.026
			c0.32,0,0.586-0.026,0.985-0.08c-1.757,1.917-2.423,3.249-2.423,4.818c0,1.227,0.719,2.104,1.758,2.104
			c0.665,0,1.251-0.292,1.996-0.933c0.746-0.691,1.49-1.756,1.998-2.848c0.346-0.8,0.61-1.865,0.61-2.504
			c0-0.904-0.397-1.545-0.983-1.545c-0.213,0-0.4,0.055-0.506,0.188L306.194,101.021"/>
	</g>
</g>
<g>
	<g>
		<defs>
			<rect id="SVGID_5_" x="131.486" y="10.982" width="100" height="16"/>
		</defs>
		<clipPath id="SVGID_6_">
			<use xlink:href="#SVGID_5_"  overflow="visible"/>
		</clipPath>
		<path clip-path="url(#SVGID_6_)" d="M135.586,12.816c0.906-0.026,1.438-0.054,2.316-0.054c0.853,0,1.545,0.134,1.545,0.319
			l0.133,1.198h0.586l0.213-2.263l-0.106-0.106c-0.585-0.054-0.878-0.08-1.49-0.08c-0.373,0-0.853,0.026-1.73,0.053
			c-1.145,0.027-1.598,0.027-2.05,0.027c-0.561,0-1.251-0.027-2.982-0.054v0.586l0.586,0.054c0.692,0.053,0.746,0.159,0.746,1.544
			v7.136c0,0.533-0.08,0.772-0.319,0.906l-0.507,0.292v0.347c1.571-0.026,1.571-0.026,1.944-0.026h0.533
			c1.624,0.026,2.263,0.053,3.062,0.053c0.826,0,1.332-0.026,2.237-0.053l0.08-0.134l0.187-2.529h-0.639l-0.346,1.518
			c0,0-0.026,0.026-0.053,0.026c-0.507,0.16-0.958,0.24-1.838,0.24c-0.666,0-1.277-0.026-2.104-0.054v-4.233
			c0.453-0.054,0.719-0.054,1.064-0.054h1.065c0.586,0,0.853,0.16,0.905,0.586l0.08,0.799h0.639l-0.027-1.73
			c0-0.16,0-0.187,0.027-1.704h-0.639l-0.08,0.905c-0.026,0.267-0.24,0.346-0.905,0.346h-1.065c-0.506,0-0.745,0-1.064-0.026v-3.835
			"/>
	</g>
	<g>
		<defs>
			<rect id="SVGID_7_" x="131.486" y="10.982" width="100" height="16"/>
		</defs>
		<clipPath id="SVGID_8_">
			<use xlink:href="#SVGID_7_"  overflow="visible"/>
		</clipPath>
		<path clip-path="url(#SVGID_8_)" d="M147.222,20.139c0,0.719-0.746,1.305-1.624,1.305c-1.119,0-1.837-1.092-1.837-2.822
			c0-1.598,0.559-2.396,1.678-2.396c0.692,0,1.251,0.293,1.784,0.985L147.222,20.139 M149.166,11.325l-0.133-0.08l-1.146,0.347
			c-0.453,0.133-1.012,0.239-1.917,0.319v0.586l0.826,0.053c0.373,0,0.426,0.16,0.426,1.092v1.943l-0.319-0.106
			c-0.452-0.186-0.879-0.293-1.277-0.293c-0.506,0-0.958,0.16-1.384,0.427l-1.146,0.745c-0.905,0.612-1.332,1.518-1.332,2.876
			c0,2.264,1.172,3.728,3.036,3.728c0.346,0,0.612-0.079,0.772-0.187l1.65-1.357l-0.08,1.198l0.08,0.106
			c0.959-0.026,1.251-0.026,1.438-0.026c0.105,0,0.398,0,0.852,0.026c0.106,0,0.399,0,0.746,0v-0.586l-0.533-0.026
			c-0.479-0.026-0.559-0.16-0.559-1.012v-9.773H149.166z"/>
	</g>
	<g>
		<defs>
			<rect id="SVGID_9_" x="131.486" y="10.982" width="100" height="16"/>
		</defs>
		<clipPath id="SVGID_10_">
			<use xlink:href="#SVGID_9_"  overflow="visible"/>
		</clipPath>
		<path clip-path="url(#SVGID_10_)" d="M155.104,22.908c1.944,0,2.423,0.266,2.423,1.278c0,1.092-1.064,1.917-2.477,1.917
			s-2.37-0.666-2.37-1.651c0-0.586,0.346-1.118,0.825-1.357C153.746,22.988,154.332,22.908,155.104,22.908 M154.785,15.985
			c0.852,0,1.305,0.691,1.305,1.943c0,1.118-0.426,1.704-1.278,1.704c-0.825,0-1.331-0.692-1.331-1.891
			C153.48,16.598,153.933,15.985,154.785,15.985z M159.205,16.837l0.08-1.012c-0.666,0.053-0.958,0.08-1.306,0.08
			c-0.133,0-0.319,0-0.586-0.027c-0.639-0.479-1.385-0.692-2.423-0.692c-2.022,0-3.435,1.198-3.435,2.85
			c0,0.586,0.213,1.118,0.585,1.544c0.293,0.293,0.532,0.453,1.092,0.64l-1.118,0.853c-0.16,0.105-0.266,0.453-0.266,0.771
			c0,0.56,0.266,0.854,1.064,1.065l-1.277,0.772c-0.239,0.133-0.427,0.532-0.427,0.984c0,1.358,1.331,2.237,3.436,2.237
			c2.796,0,4.66-1.438,4.66-3.542c0-1.357-0.746-1.97-2.344-1.97h-0.398c-1.571,0.026-2.13,0.053-2.316,0.053
			c-0.479,0-0.746-0.159-0.746-0.479c0-0.239,0.16-0.426,0.479-0.612c0.267,0,0.426,0.026,0.612,0.026
			c1.118,0,2.13-0.372,2.77-1.012c0.506-0.506,0.719-1.064,0.719-1.837c0-0.267-0.025-0.453-0.08-0.772L159.205,16.837z"/>
	</g>
	<g>
		<defs>
			<rect id="SVGID_11_" x="131.486" y="10.982" width="100" height="16"/>
		</defs>
		<clipPath id="SVGID_12_">
			<use xlink:href="#SVGID_11_"  overflow="visible"/>
		</clipPath>
		<path clip-path="url(#SVGID_12_)" d="M163.652,18.354h-0.053c-0.105,0-0.533-0.026-0.771-0.053h-0.507
			c0.054-1.571,0.427-2.21,1.358-2.21c0.905,0,1.278,0.639,1.305,2.21L163.652,18.354 M167.007,17.982
			c0-1.678-1.198-2.797-3.009-2.797c-0.532,0-0.958,0.134-1.384,0.373l-0.746,0.453c-1.065,0.612-1.519,1.57-1.519,3.089
			c0,2.503,1.278,3.86,3.648,3.86c0.904,0,1.49-0.159,2.503-0.692l0.346-0.771l-0.186-0.24c-0.746,0.427-1.226,0.56-1.864,0.56
			c-0.825,0-1.598-0.426-1.997-1.118c-0.266-0.453-0.346-0.826-0.373-1.571h2.077c0.905,0,1.625-0.08,2.503-0.319V17.982
			L167.007,17.982z"/>
	</g>
	<g>
		<defs>
			<rect id="SVGID_13_" x="131.486" y="10.982" width="100" height="16"/>
		</defs>
		<clipPath id="SVGID_14_">
			<use xlink:href="#SVGID_13_"  overflow="visible"/>
		</clipPath>
		<path clip-path="url(#SVGID_14_)" d="M178.696,21.311l-0.213-0.213c-1.012,0.559-2.05,0.825-3.089,0.825
			c-2.769,0-4.633-1.971-4.633-4.979c0-2.742,1.571-4.42,4.074-4.42c1.198,0,1.971,0.293,2.823,1.092l0.079,1.385h0.64
			c0.16-1.545,0.213-1.838,0.346-2.45l-0.08-0.16c-1.464-0.585-2.343-0.745-3.728-0.745c-4.021,0-6.524,2.13-6.524,5.512
			c0,3.568,2.45,5.805,6.364,5.805c1.464,0,2.396-0.239,3.568-0.878L178.696,21.311"/>
	</g>
	<g>
		<defs>
			<rect id="SVGID_15_" x="131.486" y="10.982" width="100" height="16"/>
		</defs>
		<clipPath id="SVGID_16_">
			<use xlink:href="#SVGID_15_"  overflow="visible"/>
		</clipPath>
		<path clip-path="url(#SVGID_16_)" d="M183.569,15.958c1.146,0,1.679,1.118,1.679,3.462c0,1.943-0.453,2.77-1.545,2.77
			c-1.118,0-1.73-1.172-1.73-3.462C181.971,16.811,182.451,15.958,183.569,15.958 M183.756,15.186c-2.53,0-3.941,1.412-3.941,3.941
			c0,2.449,1.306,3.834,3.622,3.834c2.529,0,3.967-1.464,3.967-4.021C187.403,16.518,186.098,15.186,183.756,15.186z"/>
	</g>
	<g>
		<defs>
			<rect id="SVGID_17_" x="131.486" y="10.982" width="100" height="16"/>
		</defs>
		<clipPath id="SVGID_18_">
			<use xlink:href="#SVGID_17_"  overflow="visible"/>
		</clipPath>
		<path clip-path="url(#SVGID_18_)" d="M191.425,11.245l-1.146,0.347c-0.451,0.133-0.984,0.239-1.917,0.319v0.586l0.853,0.053
			c0.347,0,0.4,0.16,0.4,1.092v7.456c0,0.852-0.08,0.985-0.561,1.012l-0.56,0.026v0.586l2.051-0.026c0.319,0,1.092,0,2.156,0.026
			v-0.586l-0.56-0.026c-0.506-0.026-0.586-0.16-0.586-1.012v-9.772L191.425,11.245"/>
	</g>
	<g>
		<defs>
			<rect id="SVGID_19_" x="131.486" y="10.982" width="100" height="16"/>
		</defs>
		<clipPath id="SVGID_20_">
			<use xlink:href="#SVGID_19_"  overflow="visible"/>
		</clipPath>
		<path clip-path="url(#SVGID_20_)" d="M196.723,11.245l-1.146,0.347c-0.452,0.133-0.985,0.239-1.917,0.319v0.586l0.852,0.053
			c0.347,0,0.4,0.16,0.4,1.092v7.456c0,0.852-0.08,0.985-0.561,1.012l-0.56,0.026v0.586l2.051-0.026c0.319,0,1.092,0,2.156,0.026
			v-0.586l-0.56-0.026c-0.506-0.026-0.586-0.16-0.586-1.012v-9.772L196.723,11.245"/>
	</g>
	<g>
		<defs>
			<rect id="SVGID_21_" x="131.486" y="10.982" width="100" height="16"/>
		</defs>
		<clipPath id="SVGID_22_">
			<use xlink:href="#SVGID_21_"  overflow="visible"/>
		</clipPath>
		<path clip-path="url(#SVGID_22_)" d="M203.433,20.857c-0.294,0.399-0.879,0.719-1.357,0.719c-0.507,0-0.825-0.399-0.825-1.012
			c0-0.771,0.347-1.092,1.464-1.385l0.72-0.213L203.433,20.857 M203.433,21.604l-0.08,1.012l0.08,0.106
			c0.985-0.026,1.251-0.026,1.438-0.026c0.214,0,0.452,0,1.411,0.026v-0.586l-0.479-0.053c-0.345-0.054-0.426-0.214-0.452-0.959
			v-0.319c0-0.533-0.026-0.959-0.026-1.358c0-0.426,0.026-0.932,0.026-1.544c0.026-0.187,0.026-0.347,0.026-0.453
			c0-1.411-0.958-2.264-2.557-2.264c-0.665,0-1.331,0.187-1.918,0.56l-0.824,0.506v1.092l0.479,0.106l0.346-0.799
			c0.027-0.106,0.479-0.213,0.906-0.213c1.064,0,1.57,0.56,1.624,1.864l-1.385,0.293c-2.023,0.426-2.716,1.038-2.716,2.396
			c0,1.277,0.639,1.97,1.838,1.97c0.371,0,0.639-0.079,0.798-0.187L203.433,21.604z"/>
	</g>
	<g>
		<defs>
			<rect id="SVGID_23_" x="131.486" y="10.982" width="100" height="16"/>
		</defs>
		<clipPath id="SVGID_24_">
			<use xlink:href="#SVGID_23_"  overflow="visible"/>
		</clipPath>
		<path clip-path="url(#SVGID_24_)" d="M210.117,17.423c0.346-0.532,0.879-0.799,1.518-0.799c1.225,0,1.971,0.958,1.971,2.556
			c0,1.651-0.72,2.689-1.892,2.689c-0.665,0-1.17-0.266-1.597-0.878V17.423 M209.957,15.186l-1.118,0.373
			c-0.533,0.134-0.799,0.187-1.624,0.293l-0.16,0.026v0.586l0.719,0.027c0.348,0.026,0.399,0.186,0.399,1.118v7.535
			c0,0.853-0.08,0.985-0.559,1.012l-0.561,0.027v0.585l2.05-0.026c0.188,0,0.24,0,2.291,0.026v-0.585l-0.719-0.027
			c-0.479,0-0.56-0.159-0.56-1.012v-2.449c0.771,0.213,1.037,0.266,1.41,0.266c0.532,0,1.093-0.293,2.185-1.145
			c0.08-0.08,0.186-0.16,0.266-0.213c1.039-0.799,1.625-2.024,1.625-3.462c0-1.678-1.225-2.956-2.876-2.956
			c-0.611,0-1.092,0.187-1.65,0.64l-0.958,0.772v-1.305L209.957,15.186z"/>
	</g>
	<g>
		<defs>
			<rect id="SVGID_25_" x="131.486" y="10.982" width="100" height="16"/>
		</defs>
		<clipPath id="SVGID_26_">
			<use xlink:href="#SVGID_25_"  overflow="visible"/>
		</clipPath>
		<path clip-path="url(#SVGID_26_)" d="M222.126,17.503l0.133-1.944c-0.611-0.266-1.092-0.373-1.943-0.373
			c-2.156,0-3.302,0.879-3.302,2.45c0,1.065,0.561,1.73,1.677,1.997l1.358,0.319c0.746,0.187,1.012,0.453,1.012,1.012
			c0,0.746-0.585,1.226-1.464,1.226c-0.746,0-1.278-0.24-1.784-0.826l-0.081-1.092h-0.61l-0.106,2.237
			c0.905,0.319,1.624,0.452,2.45,0.452c1.996,0,3.354-1.118,3.354-2.742c0-1.146-0.585-1.729-2.021-2.051l-1.305-0.293
			c-0.612-0.133-0.854-0.399-0.854-0.878c0-0.64,0.533-1.039,1.385-1.039c0.64,0,1.331,0.293,1.386,0.612l0.158,0.933H222.126"/>
	</g>
	<g>
		<defs>
			<rect id="SVGID_27_" x="131.486" y="10.982" width="100" height="16"/>
		</defs>
		<clipPath id="SVGID_28_">
			<use xlink:href="#SVGID_27_"  overflow="visible"/>
		</clipPath>
		<path clip-path="url(#SVGID_28_)" d="M227.372,18.354h-0.08c-0.08,0-0.533-0.026-0.746-0.053h-0.532
			c0.054-1.571,0.452-2.21,1.358-2.21c0.903,0,1.276,0.639,1.33,2.21L227.372,18.354 M230.7,17.982c0-1.678-1.173-2.797-2.982-2.797
			c-0.559,0-0.984,0.134-1.411,0.373l-0.745,0.453c-1.039,0.612-1.519,1.57-1.519,3.089c0,2.503,1.278,3.86,3.646,3.86
			c0.906,0,1.492-0.159,2.504-0.692l0.373-0.771l-0.214-0.24c-0.745,0.427-1.225,0.56-1.837,0.56c-0.852,0-1.625-0.426-2.022-1.118
			c-0.24-0.453-0.348-0.826-0.373-1.571h2.076c0.905,0,1.625-0.08,2.504-0.319V17.982z"/>
	</g>
</g>
</svg>
