<?xml version="1.0" encoding="utf-8"?>
<!-- Generator: Adobe Illustrator 16.0.4, SVG Export Plug-In . SVG Version: 6.00 Build 0)  -->
<!DOCTYPE svg PUBLIC "-//W3C//DTD SVG 1.1//EN" "http://www.w3.org/Graphics/SVG/1.1/DTD/svg11.dtd">
<svg version="1.1" id="Layer_1" xmlns="http://www.w3.org/2000/svg" xmlns:xlink="http://www.w3.org/1999/xlink" x="0px" y="0px"
	 width="397.95px" height="144.155px" viewBox="0 0 397.95 144.155" enable-background="new 0 0 397.95 144.155"
	 xml:space="preserve">
<polygon opacity="0.2" fill="#1B1F8A" points="27.369,99.587 41.232,57.996 73.103,34.25 126.4,40.633 140.03,64.093 
	120.375,94.372 34.22,114.564 "/>
<polygon fill="none" stroke="#000000" stroke-miterlimit="10" points="19.999,42.64 66.167,8.241 141.754,17.293 169.364,64.819 
	135.87,116.417 19.999,143.575 0.536,101.028 "/>
<polygon opacity="0.2" fill="#1B1F8A" points="19.999,42.64 66.167,8.241 141.754,17.293 169.364,64.819 135.87,116.417 
	19.999,143.575 0.536,101.028 "/>
<polygon fill="none" stroke="#000000" stroke-miterlimit="10" points="19.999,42.64 66.167,8.241 141.754,17.293 169.364,64.819 
	135.87,116.417 19.999,143.575 0.536,101.028 "/>
<polygon fill="none" stroke="#000000" stroke-miterlimit="10" points="27.369,99.587 41.232,57.996 73.103,34.25 126.4,40.633 
	140.03,64.093 120.375,94.372 34.22,114.564 "/>
<line fill="none" stroke="#000000" stroke-miterlimit="10" x1="34.22" y1="114.564" x2="19.999" y2="143.575"/>
<line fill="none" stroke="#000000" stroke-miterlimit="10" x1="27.369" y1="99.587" x2="0.536" y2="101.028"/>
<line fill="none" stroke="#000000" stroke-miterlimit="10" x1="41.232" y1="57.996" x2="19.999" y2="42.64"/>
<line fill="none" stroke="#000000" stroke-miterlimit="10" x1="73.103" y1="34.25" x2="66.167" y2="8.241"/>
<line fill="none" stroke="#000000" stroke-miterlimit="10" x1="126.4" y1="40.633" x2="141.754" y2="17.293"/>
<line fill="none" stroke="#000000" stroke-miterlimit="10" x1="140.03" y1="64.093" x2="169.364" y2="64.819"/>
<line fill="none" stroke="#000000" stroke-miterlimit="10" x1="120.375" y1="94.372" x2="135.87" y2="116.417"/>
<g>
	<polygon fill="none" stroke="#000000" stroke-miterlimit="10" points="247.999,42.64 294.167,8.241 369.754,17.293 397.364,64.819 
		363.87,116.417 247.999,143.575 228.536,101.028 	"/>
	<polygon opacity="0.2" fill="#1B1F8A" points="247.999,42.64 294.167,8.241 369.754,17.293 397.364,64.819 363.87,116.417 
		247.999,143.575 228.536,101.028 	"/>
	<polygon fill="none" stroke="#000000" stroke-miterlimit="10" points="247.999,42.64 294.167,8.241 369.754,17.293 397.364,64.819 
		363.87,116.417 247.999,143.575 228.536,101.028 	"/>
	<line fill="none" stroke="#000000" stroke-miterlimit="10" x1="308.95" y1="71.062" x2="247.999" y2="143.575"/>
	<line fill="none" stroke="#000000" stroke-miterlimit="10" x1="308.95" y1="71.062" x2="228.536" y2="101.028"/>
	<line fill="none" stroke="#000000" stroke-miterlimit="10" x1="308.95" y1="71.062" x2="247.999" y2="42.64"/>
	<line fill="none" stroke="#000000" stroke-miterlimit="10" x1="308.95" y1="71.062" x2="294.167" y2="8.241"/>
	<line fill="none" stroke="#000000" stroke-miterlimit="10" x1="308.95" y1="71.062" x2="369.754" y2="17.293"/>
	<line fill="none" stroke="#000000" stroke-miterlimit="10" x1="308.95" y1="71.062" x2="397.364" y2="64.819"/>
	<line fill="none" stroke="#000000" stroke-miterlimit="10" x1="308.95" y1="71.062" x2="363.87" y2="116.417"/>
</g>
<g>
	<g>
		<g>
			<path fill="none" stroke="#000000" stroke-width="3" stroke-miterlimit="10" d="M264.146,11.479
				C245.972,5.018,226.403,1.5,206.012,1.5c-20.525,0-40.219,3.564-58.494,10.107"/>
			<g>
				<polygon points="274.013,15.332 262.243,4.315 263.378,11.275 257.896,15.709 				"/>
			</g>
		</g>
	</g>
	<g>
		<defs>
			<rect id="SVGID_1_" x="158.306" y="10.856" width="95" height="16"/>
		</defs>
		<clipPath id="SVGID_2_">
			<use xlink:href="#SVGID_1_"  overflow="visible"/>
		</clipPath>
		<path clip-path="url(#SVGID_2_)" d="M162.247,12.69c0.772-0.027,1.305-0.027,1.837-0.027c1.065,0,1.758,0.107,1.758,0.293
			l0.133,1.198h0.586l0.213-2.263l-0.106-0.106c-0.586-0.054-0.878-0.08-1.491-0.08c-0.373,0-0.985,0.026-2.237,0.053
			c-0.745,0.027-1.145,0.027-1.464,0.027c-0.453,0-0.453,0-2.822-0.054v0.586l0.585,0.054c0.719,0.053,0.772,0.159,0.772,1.544
			v6.497c0,1.411-0.027,1.438-0.772,1.518l-0.585,0.027v0.639c1.917-0.026,1.917-0.026,2.45-0.026c0.532,0,0.532,0,2.663,0.026
			v-0.639l-0.746-0.027c-0.746-0.053-0.772-0.133-0.772-1.518V17.43c0.453-0.026,0.719-0.026,1.065-0.026h0.799
			c0.612,0,0.878,0.16,0.905,0.586l0.106,0.772h0.639l-0.053-1.705c0-0.186,0-0.399,0.053-1.624h-0.639l-0.106,0.825
			c-0.027,0.267-0.24,0.347-0.905,0.347h-0.799c-0.533,0-0.746,0-1.065-0.054V12.69"/>
		<path clip-path="url(#SVGID_2_)" d="M171.753,20.731c-0.293,0.399-0.879,0.719-1.358,0.719c-0.506,0-0.826-0.399-0.826-1.012
			c0-0.771,0.346-1.092,1.465-1.385l0.719-0.213V20.731 M171.753,21.478l-0.08,1.012l0.08,0.106
			c0.985-0.026,1.251-0.026,1.464-0.026c0.187,0,0.426,0,1.385,0.026V22.01l-0.479-0.053c-0.346-0.054-0.426-0.214-0.453-0.959
			v-0.319c0-0.533-0.026-0.959-0.026-1.358c0-0.426,0.026-0.932,0.026-1.544c0.027-0.187,0.027-0.347,0.027-0.453
			c0-1.411-0.958-2.264-2.556-2.264c-0.666,0-1.332,0.187-1.917,0.56l-0.825,0.506v1.092l0.479,0.106l0.346-0.799
			c0.027-0.106,0.479-0.213,0.905-0.213c1.065,0,1.571,0.56,1.625,1.864l-1.385,0.293c-2.023,0.426-2.716,1.038-2.716,2.396
			c0,1.277,0.639,1.97,1.837,1.97c0.373,0,0.639-0.08,0.799-0.187L171.753,21.478z"/>
		<path clip-path="url(#SVGID_2_)" d="M181.206,17.829c0.106-1.012,0.187-1.544,0.32-2.236l-0.107-0.213
			c-0.746-0.24-1.065-0.32-1.651-0.32c-0.585,0-1.039,0.134-1.411,0.347l-0.852,0.479c-1.411,0.852-1.917,1.65-1.917,3.035
			c0,2.529,1.251,3.914,3.542,3.914c0.799,0,1.384-0.159,2.13-0.559l0.32-0.719l-0.133-0.16c-0.533,0.213-0.905,0.293-1.358,0.293
			c-1.544,0-2.53-1.252-2.53-3.275c0-1.438,0.559-2.21,1.571-2.21c0.719,0,1.331,0.319,1.384,0.666l0.106,0.958H181.206"/>
		<path clip-path="url(#SVGID_2_)" d="M186.079,18.229h-0.053c-0.107,0-0.533-0.026-0.772-0.053h-0.506
			c0.053-1.571,0.426-2.21,1.358-2.21c0.905,0,1.278,0.639,1.305,2.21L186.079,18.229 M189.434,17.855
			c0-1.677-1.198-2.796-3.009-2.796c-0.56,0-0.959,0.134-1.385,0.373l-0.746,0.453c-1.065,0.612-1.518,1.57-1.518,3.089
			c0,2.503,1.278,3.86,3.648,3.86c0.905,0,1.491-0.159,2.503-0.692l0.346-0.771l-0.187-0.24c-0.746,0.427-1.225,0.56-1.864,0.56
			c-0.826,0-1.598-0.426-1.997-1.118c-0.267-0.453-0.346-0.826-0.373-1.571h2.077c0.905,0,1.624-0.08,2.503-0.319V17.855z"/>
		<path clip-path="url(#SVGID_2_)" d="M201.017,21.185l-0.213-0.213c-1.012,0.559-2.051,0.825-3.089,0.825
			c-2.77,0-4.633-1.971-4.633-4.979c0-2.742,1.571-4.42,4.074-4.42c1.198,0,1.971,0.293,2.822,1.092l0.08,1.385h0.639
			c0.16-1.545,0.214-1.838,0.347-2.45l-0.079-0.16c-1.465-0.585-2.344-0.745-3.729-0.745c-4.021,0-6.524,2.13-6.524,5.512
			c0,3.568,2.45,5.805,6.364,5.805c1.465,0,2.396-0.239,3.568-0.878L201.017,21.185"/>
		<path clip-path="url(#SVGID_2_)" d="M205.89,15.832c1.145,0,1.678,1.118,1.678,3.462c0,1.943-0.453,2.77-1.545,2.77
			c-1.118,0-1.73-1.172-1.73-3.462C204.292,16.685,204.771,15.832,205.89,15.832 M206.075,15.06c-2.529,0-3.94,1.412-3.94,3.941
			c0,2.449,1.305,3.834,3.622,3.834c2.529,0,3.967-1.464,3.967-4.021C209.724,16.392,208.419,15.06,206.075,15.06z"/>
		<path clip-path="url(#SVGID_2_)" d="M213.851,11.119l-1.145,0.347c-0.453,0.133-0.985,0.239-1.918,0.319v0.586l0.853,0.053
			c0.347,0,0.399,0.16,0.399,1.092v7.456c0,0.852-0.08,0.985-0.559,1.012l-0.56,0.026v0.586l2.05-0.026c0.32,0,1.065,0,2.131,0.026
			V22.01l-0.56-0.026c-0.479-0.026-0.56-0.16-0.56-1.012v-9.772L213.851,11.119"/>
		<path clip-path="url(#SVGID_2_)" d="M219.149,11.119l-1.145,0.347c-0.453,0.133-0.985,0.239-1.918,0.319v0.586l0.853,0.053
			c0.347,0,0.399,0.16,0.399,1.092v7.456c0,0.852-0.08,0.985-0.559,1.012l-0.56,0.026v0.586l2.05-0.026c0.32,0,1.065,0,2.131,0.026
			V22.01l-0.56-0.026c-0.479-0.026-0.56-0.16-0.56-1.012v-9.772L219.149,11.119"/>
		<path clip-path="url(#SVGID_2_)" d="M225.753,20.731c-0.293,0.399-0.879,0.719-1.357,0.719c-0.506,0-0.826-0.399-0.826-1.012
			c0-0.771,0.347-1.092,1.465-1.385l0.719-0.213V20.731 M225.753,21.478l-0.08,1.012l0.08,0.106
			c0.986-0.026,1.252-0.026,1.438-0.026c0.213,0,0.452,0,1.411,0.026V22.01l-0.479-0.053c-0.347-0.054-0.426-0.214-0.452-0.959
			v-0.319c0-0.533-0.027-0.959-0.027-1.358c0-0.426,0.027-0.932,0.027-1.544c0.026-0.187,0.026-0.347,0.026-0.453
			c0-1.411-0.958-2.264-2.556-2.264c-0.666,0-1.332,0.187-1.918,0.56l-0.825,0.506v1.092l0.479,0.106l0.346-0.799
			c0.027-0.106,0.479-0.213,0.905-0.213c1.065,0,1.571,0.56,1.624,1.864l-1.385,0.293c-2.023,0.426-2.715,1.038-2.715,2.396
			c0,1.277,0.639,1.97,1.837,1.97c0.372,0,0.639-0.08,0.799-0.187L225.753,21.478z"/>
		<path clip-path="url(#SVGID_2_)" d="M232.543,17.297c0.347-0.532,0.879-0.799,1.519-0.799c1.225,0,1.943,0.958,1.943,2.556
			c0,1.651-0.691,2.689-1.863,2.689c-0.666,0-1.172-0.266-1.599-0.878V17.297 M232.384,15.06l-1.119,0.373
			c-0.531,0.134-0.825,0.187-1.624,0.293l-0.187,0.026v0.586l0.72,0.027c0.372,0.026,0.426,0.186,0.426,1.118v7.535
			c0,0.853-0.079,0.985-0.586,1.012l-0.56,0.027v0.585l2.051-0.026c0.213,0,0.239,0,2.316,0.026v-0.585l-0.719-0.027
			c-0.479,0-0.56-0.159-0.56-1.012v-2.449c0.772,0.213,1.013,0.266,1.412,0.266c0.532,0,1.091-0.293,2.183-1.145
			c0.08-0.08,0.187-0.16,0.267-0.213c1.038-0.799,1.624-2.024,1.624-3.462c0-1.678-1.225-2.956-2.875-2.956
			c-0.64,0-1.092,0.187-1.65,0.64l-0.96,0.772v-1.305L232.384,15.06z"/>
		<path clip-path="url(#SVGID_2_)" d="M244.446,17.377l0.133-1.944c-0.613-0.266-1.092-0.373-1.943-0.373
			c-2.157,0-3.303,0.879-3.303,2.45c0,1.065,0.561,1.73,1.678,1.997l1.357,0.319c0.746,0.187,1.013,0.453,1.013,1.012
			c0,0.746-0.586,1.226-1.465,1.226c-0.745,0-1.278-0.24-1.784-0.826l-0.08-1.092h-0.612l-0.106,2.237
			c0.905,0.319,1.625,0.452,2.45,0.452c1.997,0,3.354-1.118,3.354-2.742c0-1.146-0.586-1.73-2.023-2.051l-1.305-0.293
			c-0.611-0.133-0.852-0.399-0.852-0.878c0-0.64,0.532-1.039,1.385-1.039c0.639,0,1.33,0.293,1.385,0.612l0.159,0.933H244.446"/>
		<path clip-path="url(#SVGID_2_)" d="M249.771,18.229h-0.054c-0.106,0-0.532-0.026-0.771-0.053h-0.506
			c0.053-1.571,0.426-2.21,1.357-2.21c0.905,0,1.278,0.639,1.305,2.21L249.771,18.229 M253.126,17.855
			c0-1.677-1.197-2.796-3.008-2.796c-0.533,0-0.959,0.134-1.385,0.373l-0.746,0.453c-1.064,0.612-1.518,1.57-1.518,3.089
			c0,2.503,1.277,3.86,3.648,3.86c0.904,0,1.49-0.159,2.502-0.692l0.346-0.771l-0.186-0.24c-0.746,0.427-1.225,0.56-1.864,0.56
			c-0.825,0-1.597-0.426-1.997-1.118c-0.239-0.453-0.346-0.826-0.373-1.571h2.078c0.904,0,1.624-0.08,2.502-0.319V17.855z"/>
	</g>
</g>
<circle cx="308.95" cy="71.062" r="5.318"/>
<g>
	<defs>
		<rect id="SVGID_3_" x="305.108" y="79.946" width="8" height="8"/>
	</defs>
	<clipPath id="SVGID_4_">
		<use xlink:href="#SVGID_3_"  overflow="visible"/>
	</clipPath>
	<path clip-path="url(#SVGID_4_)" d="M310.194,81.022l0.159,0.293c0.159-0.079,0.293-0.133,0.427-0.133
		c0.426,0,0.691,0.373,0.691,1.012c0,2.344-1.544,4.926-2.929,4.926c-0.799,0-1.278-0.665-1.278-1.704
		c0-1.65,0.613-3.115,2.184-5.032l-0.16-0.293c-0.319,0.133-0.532,0.187-0.984,0.187c-0.426,0-1.119-0.026-1.571-0.08l-0.187-0.026
		c-0.106,0-0.187,0-0.187,0c-0.187,0-0.347,0.026-0.506,0.106c-0.239,0.426-0.399,1.012-0.612,1.864h0.346l0.267-0.666
		c0.134-0.267,0.427-0.426,0.825-0.426c0.08,0,0.213,0,0.426,0c0.134,0.026,0.24,0.026,0.453,0.026c0.32,0,0.586-0.026,0.985-0.08
		c-1.757,1.917-2.423,3.249-2.423,4.819c0,1.226,0.719,2.104,1.758,2.104c0.665,0,1.251-0.292,1.996-0.932
		c0.746-0.692,1.491-1.757,1.998-2.849c0.346-0.799,0.611-1.864,0.611-2.503c0-0.905-0.398-1.545-0.984-1.545
		c-0.213,0-0.4,0.054-0.506,0.187L310.194,81.022"/>
</g>
<g>
	<defs>
		<rect id="SVGID_5_" x="75.504" y="63.622" width="10" height="17"/>
	</defs>
	<clipPath id="SVGID_6_">
		<use xlink:href="#SVGID_5_"  overflow="visible"/>
	</clipPath>
	<path clip-path="url(#SVGID_6_)" d="M83.146,69.731c0.08-0.293,0.187-0.666,0.267-0.879l-0.054-0.106l-0.106,0.026
		c-0.399,0.08-0.559,0.106-1.331,0.106h-0.267l0.346-1.783c0.24-1.358,0.692-1.971,1.412-1.971c0.479,0,0.905,0.239,1.145,0.612
		l0.16-0.054c0.08-0.266,0.239-0.745,0.373-1.064l0.08-0.24c-0.267-0.106-0.746-0.213-1.119-0.213c-0.16,0-0.426,0.054-0.559,0.106
		c-0.373,0.187-1.677,1.146-2.05,1.545c-0.346,0.346-0.533,0.825-0.719,1.73l-0.24,1.252c-0.639,0.319-0.958,0.452-1.358,0.585
		l-0.08,0.347h1.278l-0.133,0.905c-0.479,3.089-1.065,6.044-1.411,7.136c-0.293,0.933-0.772,1.438-1.332,1.438
		c-0.373,0-0.533-0.106-0.825-0.453l-0.24,0.054c-0.053,0.373-0.267,1.118-0.346,1.278c0.133,0.079,0.373,0.133,0.559,0.133
		c0.639,0,1.491-0.506,2.13-1.252c0.958-1.145,1.305-2.263,2.476-7.828c0.053-0.213,0.16-0.799,0.293-1.411H83.146"/>
</g>
</svg>
