<?xml version="1.0" encoding="utf-8"?>
<!-- Generator: Adobe Illustrator 16.0.4, SVG Export Plug-In . SVG Version: 6.00 Build 0)  -->
<!DOCTYPE svg PUBLIC "-//W3C//DTD SVG 1.1//EN" "http://www.w3.org/Graphics/SVG/1.1/DTD/svg11.dtd">
<svg version="1.1" id="Layer_1" xmlns="http://www.w3.org/2000/svg" xmlns:xlink="http://www.w3.org/1999/xlink" x="0px" y="0px"
	 width="374.264px" height="166.379px" viewBox="0 0 374.264 166.379" enable-background="new 0 0 374.264 166.379"
	 xml:space="preserve">
<g>
	<polygon opacity="0.2" fill="#1B1F8A" enable-background="new    " points="297.412,52.602 250.723,73.945 256.652,107.146 
		304.23,114.855 357.739,103.59 364.043,83.483 350.328,63.273 	"/>
	<g>
		<g>
			<path fill="none" stroke="#000000" stroke-width="3" stroke-miterlimit="10" d="M238.238,11.479
				C220.064,5.018,200.496,1.5,180.104,1.5c-20.525,0-40.22,3.564-58.494,10.107"/>
			<g>
				<polygon points="248.105,15.332 236.336,4.315 237.471,11.275 231.988,15.709 				"/>
			</g>
		</g>
	</g>
	<g>
		<polygon opacity="0.2" fill="#1B1F8A" enable-background="new    " points="39.812,22.958 20.785,22.958 0.627,35.704 
			10.113,57.938 27.9,73.945 33.829,107.146 56.317,153.984 87.64,165.843 117.93,153.984 144.699,149.243 150.627,118.412 
			134.916,103.59 141.166,83.188 127.505,63.273 150.627,35.704 112.075,18.808 78.143,6.95 		"/>
		
			<line fill="none" stroke="#000000" stroke-width="4" stroke-linecap="round" stroke-miterlimit="10" x1="74.589" y1="52.602" x2="81.408" y2="114.855"/>
		<line fill="none" stroke="#000000" stroke-miterlimit="10" x1="74.589" y1="52.602" x2="112.075" y2="18.808"/>
		<line fill="none" stroke="#000000" stroke-miterlimit="10" x1="74.589" y1="52.602" x2="39.812" y2="22.958"/>
		<line fill="none" stroke="#000000" stroke-miterlimit="10" x1="74.589" y1="52.602" x2="27.9" y2="73.945"/>
		<line fill="none" stroke="#000000" stroke-miterlimit="10" x1="81.408" y1="114.855" x2="33.829" y2="107.146"/>
		<line fill="none" stroke="#000000" stroke-miterlimit="10" x1="81.408" y1="114.855" x2="56.317" y2="153.984"/>
		<line fill="none" stroke="#000000" stroke-miterlimit="10" x1="81.408" y1="114.855" x2="117.93" y2="153.984"/>
		<line fill="none" stroke="#000000" stroke-miterlimit="10" x1="81.408" y1="114.855" x2="134.916" y2="103.59"/>
		<line fill="none" stroke="#000000" stroke-miterlimit="10" x1="74.589" y1="52.602" x2="127.505" y2="63.273"/>
		<line fill="none" stroke="#000000" stroke-miterlimit="10" x1="74.589" y1="52.602" x2="78.143" y2="6.95"/>
		<polygon fill="none" stroke="#000000" stroke-miterlimit="10" points="39.812,22.958 20.785,22.958 0.627,35.704 10.113,57.938 
			27.9,73.945 33.829,107.146 56.317,153.984 87.64,165.843 117.93,153.984 144.699,149.243 150.627,118.412 134.916,103.59 
			141.166,83.188 127.505,63.273 150.627,35.704 112.075,18.808 78.143,6.95 		"/>
	</g>
	<g>
		<g>
			<defs>
				<rect id="SVGID_1_" x="83.23" y="79.343" width="6" height="8"/>
			</defs>
			<clipPath id="SVGID_2_">
				<use xlink:href="#SVGID_1_"  overflow="visible"/>
			</clipPath>
			<path clip-path="url(#SVGID_2_)" d="M85.015,82.789c0.293-1.092,0.61-1.784,1.063-2.184c0.293-0.266,0.771-0.452,1.146-0.452
				c0.479,0,0.771,0.319,0.771,0.825c0,0.692-0.56,1.438-1.384,1.837c-0.453,0.24-1.013,0.399-1.731,0.56L85.015,82.789
				 M88.449,85.372l-0.398,0.267c-0.825,0.612-1.598,0.932-2.156,0.932c-0.745,0-1.226-0.586-1.226-1.543
				c0-0.399,0.055-0.826,0.133-1.278l1.307-0.319c0.266-0.08,0.69-0.24,1.091-0.399c1.358-0.586,1.971-1.332,1.971-2.317
				c0-0.745-0.531-1.225-1.331-1.225c-1.039,0-2.797,1.092-3.407,2.104c-0.48,0.799-0.959,2.689-0.959,3.755
				c0,1.252,0.691,1.971,1.838,1.971c0.903,0,1.811-0.452,3.273-1.625L88.449,85.372z"/>
		</g>
	</g>
	<g>
		<path d="M147.586,12.816c0.906-0.026,1.438-0.054,2.317-0.054c0.852,0,1.544,0.134,1.544,0.319l0.133,1.198h0.586l0.213-2.263
			l-0.105-0.106c-0.585-0.054-0.878-0.08-1.491-0.08c-0.373,0-0.852,0.026-1.73,0.053c-1.145,0.027-1.598,0.027-2.05,0.027
			c-0.56,0-1.251-0.027-2.981-0.054v0.586l0.586,0.054c0.691,0.053,0.746,0.159,0.746,1.544v7.136c0,0.533-0.08,0.772-0.32,0.906
			l-0.506,0.292v0.347c1.571-0.026,1.571-0.026,1.944-0.026h0.532c1.624,0.026,2.264,0.053,3.062,0.053
			c0.826,0,1.332-0.026,2.236-0.053l0.08-0.134l0.188-2.529h-0.639l-0.347,1.518c0,0-0.025,0.026-0.053,0.026
			c-0.506,0.16-0.958,0.24-1.837,0.24c-0.666,0-1.278-0.026-2.104-0.054v-4.233c0.453-0.054,0.72-0.054,1.065-0.054h1.065
			c0.586,0,0.852,0.16,0.904,0.586l0.08,0.799h0.639l-0.026-1.73c0-0.16,0-0.187,0.026-1.704h-0.639l-0.08,0.905
			c-0.025,0.267-0.24,0.346-0.904,0.346h-1.065c-0.506,0-0.746,0-1.065-0.026v-3.835"/>
		<path d="M156.48,15.186l-1.118,0.373c-0.506,0.134-0.799,0.187-1.812,0.319v0.586l0.72,0.027c0.373,0.026,0.426,0.186,0.426,1.118
			v3.488c0,0.852-0.08,0.985-0.586,1.012l-0.56,0.026v0.586l2.051-0.026c0.213,0,0.266,0,2.423,0.026v-0.586l-0.64-0.026
			c-0.666-0.026-0.745-0.134-0.745-1.012v-3.143c0-0.506,0.639-1.038,1.251-1.038c0.398,0,0.691,0.213,0.904,0.586l0.399-0.16
			l0.08-2.05c-0.16-0.054-0.373-0.107-0.585-0.107c-0.453,0-0.746,0.214-1.358,0.853l-0.691,0.772v-1.518L156.48,15.186"/>
		<path d="M164.042,20.857c-0.319,0.399-0.904,0.719-1.357,0.719c-0.533,0-0.826-0.399-0.826-1.012c0-0.771,0.346-1.092,1.464-1.385
			l0.719-0.213L164.042,20.857 M164.042,21.604l-0.08,1.012l0.08,0.106c0.985-0.026,1.251-0.026,1.438-0.026
			c0.186,0,0.453,0,1.411,0.026v-0.586l-0.479-0.053c-0.346-0.054-0.426-0.214-0.453-0.959v-0.319
			c-0.025-0.533-0.025-0.959-0.025-1.358c0-0.426,0-0.932,0.025-1.544c0.027-0.187,0.027-0.347,0.027-0.453
			c0-1.411-0.958-2.264-2.556-2.264c-0.666,0-1.332,0.187-1.917,0.56l-0.853,0.506v1.092l0.479,0.106l0.346-0.799
			c0.053-0.106,0.506-0.213,0.932-0.213c1.065,0,1.571,0.56,1.625,1.864l-1.411,0.293c-1.997,0.426-2.716,1.038-2.716,2.396
			c0,1.277,0.666,1.97,1.864,1.97c0.347,0,0.613-0.079,0.771-0.187L164.042,21.604z"/>
		<path d="M173.042,17.503l0.133-1.944c-0.639-0.266-1.118-0.373-1.971-0.373c-2.13,0-3.302,0.879-3.302,2.45
			c0,1.065,0.586,1.73,1.678,1.997l1.384,0.319c0.72,0.187,0.985,0.453,0.985,1.012c0,0.746-0.559,1.226-1.464,1.226
			c-0.746,0-1.251-0.24-1.757-0.826l-0.08-1.092h-0.64l-0.105,2.237c0.905,0.319,1.625,0.452,2.477,0.452
			c1.997,0,3.355-1.118,3.355-2.742c0-1.146-0.612-1.729-2.024-2.051l-1.305-0.293c-0.612-0.133-0.878-0.399-0.878-0.878
			c0-0.64,0.532-1.039,1.384-1.039c0.639,0,1.358,0.293,1.385,0.612l0.16,0.933H173.042"/>
		<path d="M178.26,18.354h-0.053c-0.105,0-0.532-0.026-0.771-0.053h-0.506c0.053-1.571,0.426-2.21,1.357-2.21
			c0.905,0,1.278,0.639,1.305,2.21L178.26,18.354 M181.617,17.982c0-1.678-1.198-2.797-3.009-2.797c-0.56,0-0.958,0.134-1.384,0.373
			l-0.772,0.453c-1.039,0.612-1.491,1.57-1.491,3.089c0,2.503,1.278,3.86,3.622,3.86c0.905,0,1.519-0.159,2.529-0.692l0.346-0.771
			l-0.186-0.24c-0.746,0.427-1.226,0.56-1.864,0.56c-0.825,0-1.598-0.426-1.997-1.118c-0.266-0.453-0.346-0.826-0.398-1.571h2.104
			c0.905,0,1.598-0.08,2.503-0.319v-0.827H181.617z"/>
		<path d="M186.489,12.816c0.905-0.026,1.438-0.054,2.317-0.054c0.852,0,1.543,0.134,1.543,0.319l0.134,1.198h0.586l0.213-2.263
			l-0.106-0.106c-0.586-0.054-0.879-0.08-1.49-0.08c-0.372,0-0.854,0.026-1.73,0.053c-1.146,0.027-1.598,0.027-2.05,0.027
			c-0.562,0-1.252-0.027-3.01-0.054v0.586l0.611,0.054c0.692,0.053,0.745,0.159,0.745,1.544v7.136c0,0.533-0.079,0.772-0.317,0.906
			l-0.506,0.292v0.347c1.569-0.026,1.569-0.026,1.942-0.026h0.533c1.623,0.026,2.236,0.053,3.062,0.053
			c0.826,0,1.306-0.026,2.237-0.053l0.079-0.134l0.187-2.529h-0.639l-0.347,1.518c0,0-0.026,0.026-0.055,0.026
			c-0.506,0.16-0.957,0.24-1.837,0.24c-0.665,0-1.277-0.026-2.104-0.054v-4.233c0.452-0.054,0.72-0.054,1.064-0.054h1.064
			c0.586,0,0.853,0.16,0.906,0.586l0.08,0.799h0.639l-0.054-1.73c0-0.16,0-0.187,0.054-1.704h-0.639l-0.08,0.905
			c-0.027,0.267-0.24,0.346-0.906,0.346h-1.064c-0.506,0-0.745,0-1.064-0.026L186.489,12.816"/>
		<path d="M198.232,20.139c0,0.719-0.746,1.305-1.625,1.305c-1.146,0-1.863-1.092-1.863-2.822c0-1.598,0.559-2.396,1.704-2.396
			c0.665,0,1.251,0.293,1.784,0.985V20.139 M200.149,11.325l-0.106-0.08l-1.145,0.347c-0.48,0.133-1.014,0.239-1.944,0.319v0.586
			l0.854,0.053c0.346,0,0.426,0.16,0.426,1.092v1.943l-0.32-0.106c-0.452-0.186-0.879-0.293-1.277-0.293
			c-0.506,0-0.959,0.16-1.411,0.427l-1.146,0.745c-0.905,0.612-1.332,1.518-1.332,2.876c0,2.264,1.172,3.728,3.036,3.728
			c0.373,0,0.64-0.079,0.799-0.187l1.651-1.357l-0.08,1.198l0.08,0.106c0.932-0.026,1.251-0.026,1.411-0.026
			c0.133,0,0.426,0,0.878,0.026c0.106,0,0.399,0,0.746,0v-0.586l-0.533-0.026c-0.506-0.026-0.585-0.16-0.585-1.012L200.149,11.325
			L200.149,11.325z"/>
		<path d="M206.113,22.908c1.944,0,2.424,0.266,2.424,1.278c0,1.092-1.064,1.917-2.504,1.917c-1.41,0-2.342-0.666-2.342-1.651
			c0-0.586,0.346-1.118,0.824-1.357C204.756,22.988,205.342,22.908,206.113,22.908 M205.795,15.985c0.824,0,1.306,0.691,1.306,1.943
			c0,1.118-0.428,1.704-1.279,1.704c-0.824,0-1.33-0.692-1.33-1.891C204.49,16.598,204.942,15.985,205.795,15.985z M210.188,16.837
			l0.08-1.012c-0.64,0.053-0.959,0.08-1.306,0.08c-0.133,0-0.318,0-0.559-0.027c-0.666-0.479-1.412-0.692-2.424-0.692
			c-2.023,0-3.436,1.198-3.436,2.85c0,0.586,0.188,1.118,0.585,1.544c0.293,0.293,0.533,0.453,1.093,0.64l-1.146,0.853
			c-0.16,0.105-0.266,0.453-0.266,0.771c0,0.56,0.293,0.854,1.092,1.065l-1.279,0.772c-0.239,0.133-0.426,0.532-0.426,0.984
			c0,1.358,1.332,2.237,3.436,2.237c2.771,0,4.66-1.438,4.66-3.542c0-1.357-0.746-1.97-2.371-1.97h-0.372
			c-1.57,0.026-2.13,0.053-2.316,0.053c-0.506,0-0.744-0.159-0.744-0.479c0-0.239,0.133-0.426,0.452-0.612
			c0.292,0,0.452,0.026,0.639,0.026c1.092,0,2.13-0.372,2.771-1.012c0.479-0.506,0.691-1.064,0.691-1.837
			c0-0.267,0-0.453-0.08-0.772L210.188,16.837z"/>
		<path d="M214.661,18.354h-0.054c-0.105,0-0.531-0.026-0.771-0.053h-0.506c0.053-1.571,0.426-2.21,1.357-2.21
			c0.904,0,1.277,0.639,1.305,2.21L214.661,18.354 M218.016,17.982c0-1.678-1.197-2.797-3.009-2.797
			c-0.56,0-0.959,0.134-1.385,0.373l-0.746,0.453c-1.063,0.612-1.518,1.57-1.518,3.089c0,2.503,1.276,3.86,3.621,3.86
			c0.905,0,1.518-0.159,2.529-0.692l0.348-0.771l-0.188-0.24c-0.746,0.427-1.225,0.56-1.862,0.56c-0.826,0-1.599-0.426-1.998-1.118
			c-0.267-0.453-0.347-0.826-0.398-1.571h2.104c0.903,0,1.598-0.08,2.502-0.319V17.982z"/>
	</g>
	<polygon opacity="0.2" fill="#1B1F8A" enable-background="new    " points="262.635,22.958 243.608,22.958 223.45,35.704 
		232.936,57.938 250.723,73.945 256.652,107.146 279.141,153.984 310.463,165.843 340.754,153.984 367.521,149.243 373.451,118.412 
		357.739,103.59 364.043,83.483 350.328,63.273 373.451,35.704 334.898,18.808 300.966,6.95 	"/>
	<line fill="none" stroke="#000000" stroke-miterlimit="10" x1="297.412" y1="52.602" x2="334.898" y2="18.808"/>
	<line fill="none" stroke="#000000" stroke-miterlimit="10" x1="297.412" y1="52.602" x2="262.635" y2="22.958"/>
	<line fill="none" stroke="#000000" stroke-miterlimit="10" x1="297.412" y1="52.602" x2="250.723" y2="73.945"/>
	<line fill="none" stroke="#000000" stroke-miterlimit="10" x1="304.23" y1="114.855" x2="256.652" y2="107.146"/>
	<line fill="none" stroke="#000000" stroke-miterlimit="10" x1="304.23" y1="114.855" x2="279.141" y2="153.984"/>
	<line fill="none" stroke="#000000" stroke-miterlimit="10" x1="304.23" y1="114.855" x2="340.754" y2="153.984"/>
	<line fill="none" stroke="#000000" stroke-miterlimit="10" x1="304.23" y1="114.855" x2="357.739" y2="103.59"/>
	<line fill="none" stroke="#000000" stroke-miterlimit="10" x1="297.412" y1="52.602" x2="350.328" y2="63.273"/>
	<line fill="none" stroke="#000000" stroke-miterlimit="10" x1="297.412" y1="52.602" x2="300.966" y2="6.95"/>
	<polygon fill="none" stroke="#000000" stroke-miterlimit="10" points="262.635,22.958 243.608,22.958 223.45,35.704 
		232.936,57.938 250.723,73.945 256.652,107.146 279.141,153.984 310.463,165.843 340.754,153.984 367.521,149.243 373.451,118.412 
		357.739,103.59 364.043,83.483 350.328,63.273 373.451,35.704 334.898,18.808 300.966,6.95 	"/>
	<g>
		<g>
			<defs>
				<rect id="SVGID_3_" x="296.465" y="76.019" width="10" height="17"/>
			</defs>
			<clipPath id="SVGID_4_">
				<use xlink:href="#SVGID_3_"  overflow="visible"/>
			</clipPath>
			<path clip-path="url(#SVGID_4_)" d="M304.107,82.128c0.08-0.293,0.186-0.666,0.266-0.879l-0.053-0.106l-0.107,0.026
				c-0.397,0.08-0.559,0.106-1.33,0.106h-0.268l0.346-1.783c0.24-1.358,0.693-1.971,1.412-1.971c0.479,0,0.906,0.239,1.146,0.612
				l0.159-0.054c0.08-0.266,0.24-0.745,0.373-1.064l0.08-0.24c-0.268-0.106-0.746-0.213-1.119-0.213
				c-0.159,0-0.426,0.054-0.559,0.106c-0.373,0.187-1.678,1.146-2.051,1.545c-0.346,0.346-0.533,0.825-0.719,1.73l-0.24,1.252
				c-0.64,0.319-0.957,0.452-1.357,0.585l-0.08,0.347h1.279l-0.135,0.905c-0.479,3.089-1.064,6.044-1.41,7.136
				c-0.293,0.934-0.773,1.438-1.332,1.438c-0.373,0-0.533-0.105-0.824-0.453l-0.24,0.055c-0.053,0.373-0.268,1.118-0.346,1.277
				c0.133,0.08,0.371,0.134,0.56,0.134c0.639,0,1.489-0.507,2.131-1.252c0.957-1.146,1.305-2.263,2.475-7.828
				c0.055-0.213,0.16-0.799,0.293-1.411L304.107,82.128"/>
		</g>
	</g>
</g>
</svg>
