<?xml version="1.0" encoding="utf-8"?>
<!-- Generator: Adobe Illustrator 16.0.4, SVG Export Plug-In . SVG Version: 6.00 Build 0)  -->
<!DOCTYPE svg PUBLIC "-//W3C//DTD SVG 1.1//EN" "http://www.w3.org/Graphics/SVG/1.1/DTD/svg11.dtd">
<svg version="1.1" id="Layer_1" xmlns="http://www.w3.org/2000/svg" xmlns:xlink="http://www.w3.org/1999/xlink" x="0px" y="0px"
	 width="349.881px" height="119.336px" viewBox="0 0 349.881 119.336" enable-background="new 0 0 349.881 119.336"
	 xml:space="preserve">
<g>
	<g>
		<polygon opacity="0.2" fill="#1B1F8A" points="52.667,118.824 19.741,90.492 0.667,45.513 29.396,35.193 31.167,16.367 
			54.48,0.658 68.487,16.367 100.167,6.158 107.579,35.193 136.333,50.825 117.234,77.493 109.333,99.158 90.182,116.492 		"/>
		<polygon fill="none" stroke="#000000" stroke-miterlimit="10" points="52.667,118.824 19.741,90.492 0.667,45.513 29.396,35.193 
			31.167,16.367 54.48,0.658 68.487,16.367 100.167,6.158 107.579,35.193 136.333,50.825 117.234,77.493 109.333,99.158 
			90.182,116.492 		"/>
		<line fill="none" stroke="#000000" stroke-miterlimit="10" x1="76.167" y1="55.658" x2="68.487" y2="16.367"/>
		<line fill="none" stroke="#000000" stroke-miterlimit="10" x1="76.167" y1="55.658" x2="107.579" y2="35.193"/>
		<line fill="none" stroke="#000000" stroke-miterlimit="10" x1="76.167" y1="55.658" x2="117.234" y2="77.493"/>
		<line fill="none" stroke="#000000" stroke-miterlimit="10" x1="76.167" y1="55.658" x2="90.182" y2="116.492"/>
		<line fill="none" stroke="#000000" stroke-miterlimit="10" x1="76.167" y1="55.658" x2="52.667" y2="118.824"/>
		<line fill="none" stroke="#000000" stroke-miterlimit="10" x1="76.167" y1="55.658" x2="19.741" y2="90.492"/>
		<line fill="none" stroke="#000000" stroke-miterlimit="10" x1="76.167" y1="55.658" x2="29.396" y2="35.193"/>
		<circle cx="76.167" cy="55.658" r="3.671"/>
	</g>
	<g>
		<defs>
			<rect id="SVGID_1_" x="76.774" y="40.104" width="8" height="8"/>
		</defs>
		<clipPath id="SVGID_2_">
			<use xlink:href="#SVGID_1_"  overflow="visible"/>
		</clipPath>
		<path clip-path="url(#SVGID_2_)" d="M81.86,41.181l0.16,0.293c0.16-0.079,0.293-0.133,0.426-0.133
			c0.426,0,0.692,0.373,0.692,1.012c0,2.344-1.544,4.926-2.929,4.926c-0.799,0-1.278-0.665-1.278-1.704
			c0-1.65,0.613-3.115,2.184-5.032l-0.16-0.293c-0.32,0.133-0.533,0.187-0.985,0.187c-0.426,0-1.118-0.026-1.571-0.08l-0.187-0.026
			c-0.106,0-0.187,0-0.187,0c-0.186,0-0.346,0.026-0.506,0.106c-0.24,0.426-0.399,1.012-0.612,1.864h0.346l0.266-0.666
			c0.133-0.267,0.426-0.426,0.826-0.426c0.08,0,0.213,0,0.426,0c0.133,0.026,0.24,0.026,0.453,0.026c0.32,0,0.586-0.026,0.985-0.08
			c-1.757,1.917-2.423,3.249-2.423,4.819c0,1.226,0.719,2.104,1.758,2.104c0.666,0,1.251-0.292,1.997-0.932
			c0.746-0.692,1.491-1.757,1.997-2.849c0.346-0.799,0.612-1.864,0.612-2.503c0-0.905-0.399-1.545-0.985-1.545
			c-0.213,0-0.399,0.054-0.506,0.187L81.86,41.181"/>
	</g>
</g>
<g>
	<g>
		<polygon opacity="0.4" fill="#1B1F8A" points="265.477,118.824 232.551,90.492 213.477,45.513 242.206,35.193 243.977,16.367 
			267.291,0.658 281.298,16.367 312.977,6.158 320.39,35.193 349.145,50.825 330.045,77.493 322.145,99.158 302.992,116.492 		"/>
		<polygon fill="none" stroke="#000000" stroke-miterlimit="10" points="265.477,118.824 232.551,90.492 213.477,45.513 
			242.206,35.193 243.977,16.367 267.291,0.658 281.298,16.367 312.977,6.158 320.39,35.193 349.145,50.825 330.045,77.493 
			322.145,99.158 302.992,116.492 		"/>
	</g>
	<g>
		<defs>
			<rect id="SVGID_3_" x="275.648" y="54.78" width="10" height="17"/>
		</defs>
		<clipPath id="SVGID_4_">
			<use xlink:href="#SVGID_3_"  overflow="visible"/>
		</clipPath>
		<path clip-path="url(#SVGID_4_)" d="M283.29,60.89c0.08-0.293,0.187-0.666,0.267-0.879l-0.054-0.106l-0.106,0.026
			c-0.399,0.08-0.559,0.106-1.331,0.106h-0.267l0.346-1.783c0.24-1.358,0.693-1.971,1.412-1.971c0.479,0,0.905,0.239,1.145,0.612
			l0.16-0.054c0.08-0.266,0.239-0.745,0.373-1.064l0.08-0.24c-0.268-0.106-0.746-0.213-1.119-0.213c-0.16,0-0.426,0.054-0.559,0.106
			c-0.373,0.187-1.678,1.146-2.051,1.545c-0.346,0.346-0.533,0.825-0.719,1.73l-0.24,1.252c-0.639,0.319-0.958,0.452-1.357,0.585
			l-0.08,0.347h1.278l-0.134,0.905c-0.479,3.089-1.064,6.044-1.41,7.136c-0.293,0.933-0.773,1.438-1.332,1.438
			c-0.373,0-0.533-0.106-0.825-0.453l-0.239,0.054c-0.054,0.373-0.268,1.118-0.347,1.278c0.134,0.079,0.372,0.133,0.56,0.133
			c0.639,0,1.49-0.506,2.13-1.252c0.958-1.145,1.305-2.263,2.476-7.828c0.054-0.213,0.16-0.799,0.293-1.411H283.29"/>
	</g>
</g>
<g>
	<g>
		<path fill="none" stroke="#000000" stroke-width="3" stroke-miterlimit="10" d="M227.278,19.637
			c-18.175-6.461-37.743-9.979-58.134-9.979c-20.525,0-40.219,3.564-58.494,10.107"/>
		<g>
			<polygon points="237.145,23.491 225.375,12.474 226.51,19.434 221.028,23.868 			"/>
		</g>
	</g>
</g>
<g>
	<g>
		<polyline fill="none" stroke="#000000" stroke-width="0.5" stroke-miterlimit="10" points="71.827,29.386 70.906,28.996 
			70.126,29.622 		"/>
		
			<line fill="none" stroke="#000000" stroke-width="0.5" stroke-miterlimit="10" stroke-dasharray="2.1108,2.1108" x1="68.479" y1="30.941" x2="52.832" y2="43.482"/>
		<polyline fill="none" stroke="#000000" stroke-width="0.5" stroke-miterlimit="10" points="52.008,44.142 51.228,44.768 
			51.287,45.766 		"/>
		
			<line fill="none" stroke="#000000" stroke-width="0.5" stroke-miterlimit="10" stroke-dasharray="2.1247,2.1247" x1="51.413" y1="47.887" x2="52.609" y2="68.036"/>
		<polyline fill="none" stroke="#000000" stroke-width="0.5" stroke-miterlimit="10" points="52.672,69.097 52.731,70.095 
			53.515,70.716 		"/>
		<polyline fill="none" stroke="#000000" stroke-width="0.5" stroke-miterlimit="10" stroke-dasharray="1.9964,1.9964" points="
			55.08,71.956 66.643,81.125 82.216,82.129 98.52,69.629 		"/>
		<polyline fill="none" stroke="#000000" stroke-width="0.5" stroke-miterlimit="10" points="99.312,69.021 100.105,68.412 
			100.061,67.414 		"/>
		
			<line fill="none" stroke="#000000" stroke-width="0.5" stroke-miterlimit="10" stroke-dasharray="1.97,1.97" x1="99.973" y1="65.445" x2="98.965" y2="42.813"/>
		<polyline fill="none" stroke="#000000" stroke-width="0.5" stroke-miterlimit="10" points="98.921,41.83 98.876,40.831 
			97.956,40.441 		"/>
		
			<line fill="none" stroke="#000000" stroke-width="0.5" stroke-miterlimit="10" stroke-dasharray="1.8914,1.8914" x1="96.213" y1="39.704" x2="72.698" y2="29.754"/>
	</g>
</g>
<g>
	<path d="M132.008,20.924c0.906-0.053,1.438-0.053,2.317-0.053c0.852,0,1.544,0.133,1.544,0.319l0.133,1.171h0.586l0.213-2.236
		l-0.106-0.133c-0.585-0.027-0.878-0.054-1.491-0.054c-0.373,0-0.852,0.026-1.73,0.026c-1.145,0.027-1.598,0.027-2.05,0.027
		c-0.56,0-1.251,0-2.982-0.027v0.586l0.586,0.054c0.692,0.053,0.746,0.159,0.746,1.544v7.137c0,0.532-0.08,0.771-0.32,0.879
		l-0.506,0.292v0.373c1.571-0.053,1.571-0.053,1.944-0.053h0.533c1.624,0.053,2.263,0.079,3.062,0.079
		c0.826,0,1.332-0.026,2.237-0.079l0.08-0.134l0.187-2.503h-0.639l-0.346,1.491c0,0.026-0.026,0.026-0.053,0.054
		c-0.506,0.159-0.958,0.213-1.837,0.213c-0.666,0-1.278,0-2.104-0.026v-4.261c0.453-0.026,0.719-0.054,1.065-0.054h1.065
		c0.586,0,0.852,0.187,0.905,0.613l0.08,0.771h0.639l-0.027-1.704c0-0.187,0-0.187,0.027-1.704h-0.639l-0.08,0.905
		c-0.026,0.267-0.24,0.347-0.905,0.347h-1.065c-0.506,0-0.746,0-1.065-0.054V20.924"/>
	<path d="M140.902,23.294l-1.118,0.346c-0.506,0.16-0.799,0.213-1.811,0.347v0.559l0.719,0.054c0.373,0.026,0.426,0.187,0.426,1.118
		v3.488c0,0.852-0.08,0.959-0.586,1.012l-0.559,0.026v0.586l2.05-0.053c0.213,0,0.266,0,2.423,0.053v-0.586l-0.639-0.026
		c-0.666-0.053-0.746-0.133-0.746-1.012v-3.169c0-0.479,0.639-1.012,1.251-1.012c0.399,0,0.692,0.187,0.905,0.586l0.399-0.16
		l0.08-2.05c-0.16-0.08-0.373-0.106-0.585-0.106c-0.453,0-0.746,0.187-1.358,0.852l-0.692,0.746v-1.491L140.902,23.294"/>
	<path d="M148.464,28.966c-0.32,0.399-0.905,0.691-1.358,0.691c-0.533,0-0.826-0.372-0.826-0.984c0-0.772,0.346-1.092,1.464-1.412
		l0.719-0.186V28.966 M148.464,29.711l-0.08,0.985l0.08,0.133c0.985-0.026,1.251-0.053,1.438-0.053c0.186,0,0.453,0.026,1.411,0.053
		v-0.586l-0.479-0.053c-0.346-0.054-0.426-0.213-0.453-0.959v-0.346c-0.026-0.506-0.026-0.959-0.026-1.332
		c0-0.426,0-0.932,0.026-1.544c0.027-0.213,0.027-0.346,0.027-0.453c0-1.411-0.958-2.263-2.556-2.263
		c-0.666,0-1.332,0.187-1.917,0.532l-0.852,0.506v1.118l0.479,0.106l0.346-0.799c0.053-0.106,0.506-0.213,0.932-0.213
		c1.065,0,1.571,0.56,1.625,1.864l-1.411,0.293c-1.997,0.399-2.716,1.038-2.716,2.37c0,1.305,0.666,1.97,1.864,1.97
		c0.347,0,0.613-0.053,0.772-0.187L148.464,29.711z"/>
	<path d="M157.464,25.611l0.133-1.943c-0.639-0.267-1.119-0.373-1.971-0.373c-2.13,0-3.302,0.852-3.302,2.449
		c0,1.039,0.586,1.704,1.678,1.997l1.384,0.319c0.719,0.187,0.985,0.453,0.985,1.013c0,0.745-0.559,1.225-1.464,1.225
		c-0.746,0-1.251-0.24-1.757-0.825l-0.08-1.119h-0.639l-0.106,2.264c0.905,0.319,1.625,0.426,2.477,0.426
		c1.997,0,3.355-1.092,3.355-2.716c0-1.145-0.612-1.73-2.024-2.05l-1.305-0.293c-0.612-0.134-0.878-0.399-0.878-0.905
		c0-0.612,0.532-1.012,1.384-1.012c0.639,0,1.358,0.292,1.385,0.612l0.16,0.932H157.464"/>
	<path d="M162.683,26.436h-0.053c-0.106,0-0.532,0-0.772-0.026l-0.506-0.026c0.053-1.571,0.426-2.184,1.358-2.184
		c0.905,0,1.278,0.612,1.305,2.184L162.683,26.436 M166.039,26.09c0-1.704-1.198-2.796-3.009-2.796
		c-0.559,0-0.958,0.106-1.384,0.373l-0.772,0.452c-1.039,0.612-1.491,1.571-1.491,3.062c0,2.529,1.278,3.86,3.622,3.86
		c0.905,0,1.518-0.159,2.529-0.665l0.346-0.772l-0.186-0.239c-0.746,0.426-1.225,0.559-1.864,0.559
		c-0.825,0-1.598-0.452-1.997-1.118c-0.266-0.453-0.346-0.825-0.399-1.571h2.104c0.905,0,1.598-0.08,2.503-0.319V26.09z"/>
	<path d="M172.109,20.551v-0.586c-0.666,0-1.278,0-1.464,0.027c-0.533,0-0.905,0-1.119,0c-0.213,0-0.213,0-2.503-0.027v0.586
		l0.666,0.054c0.373,0.026,0.612,0.319,0.985,1.145l3.781,9.08h1.226c0.159-0.426,0.213-0.586,0.292-0.772
		c0.08-0.239,0.134-0.426,0.188-0.479c0-0.054,0.053-0.187,0.105-0.32l3.303-7.908c0.213-0.506,0.426-0.719,0.745-0.745l0.532-0.054
		v-0.586c-1.703,0.027-1.703,0.027-1.863,0.027s-0.426,0-0.879,0c-0.133-0.027-0.532-0.027-0.932-0.027v0.586l0.719,0.054
		c0.373,0.026,0.586,0.159,0.586,0.399c0,0.239-0.16,0.745-0.479,1.571l-2.263,5.618l-2.503-6.151
		c-0.32-0.825-0.32-0.852-0.32-1.145c0-0.134,0.187-0.293,0.399-0.293L172.109,20.551"/>
	<path d="M181.27,26.436h-0.054c-0.106,0-0.532,0-0.772-0.026l-0.506-0.026c0.054-1.571,0.426-2.184,1.358-2.184
		c0.905,0,1.278,0.612,1.331,2.184L181.27,26.436 M184.625,26.09c0-1.704-1.172-2.796-2.982-2.796c-0.56,0-0.986,0.106-1.412,0.373
		l-0.745,0.452c-1.038,0.612-1.519,1.571-1.519,3.062c0,2.529,1.279,3.86,3.648,3.86c0.906,0,1.491-0.159,2.504-0.665l0.346-0.772
		l-0.187-0.239c-0.745,0.426-1.226,0.559-1.864,0.559c-0.825,0-1.598-0.452-1.996-1.118c-0.24-0.453-0.347-0.825-0.373-1.571h2.076
		c0.906,0,1.625-0.08,2.504-0.319V26.09z"/>
	<path d="M188.698,23.294l-1.118,0.346c-0.506,0.16-0.799,0.213-1.784,0.347v0.559l0.692,0.054c0.373,0.026,0.426,0.187,0.426,1.118
		v3.488c0,0.852-0.08,0.959-0.586,1.012l-0.532,0.026v0.586l2.05-0.053c0.188,0,0.24,0,2.396,0.053v-0.586l-0.639-0.026
		c-0.666-0.053-0.745-0.133-0.745-1.012v-3.169c0-0.479,0.639-1.012,1.278-1.012c0.372,0,0.665,0.187,0.904,0.586l0.373-0.16
		l0.08-2.05c-0.16-0.08-0.373-0.106-0.586-0.106c-0.453,0-0.745,0.187-1.357,0.852l-0.692,0.746v-1.491L188.698,23.294"/>
	<path d="M196.66,29.818l-0.133-0.293c-0.32,0.16-0.48,0.213-0.719,0.213c-0.746,0-0.986-0.266-0.986-1.038v-3.781h1.678
		l0.133-1.038l-1.811,0.106v-0.933c0-0.852,0.027-1.357,0.188-2.156l-0.24-0.16c-0.612,0.293-1.119,0.479-1.918,0.799
		c0.027,0.825,0.055,1.118,0.055,1.465v0.958l-1.039,0.666v0.347l1.012-0.054v4.127c0,1.411,0.586,1.997,1.971,1.997
		c0.479,0,0.879-0.106,1.038-0.266L196.66,29.818"/>
	<path d="M200.787,26.436h-0.08c-0.079,0-0.506,0-0.745-0.026l-0.506-0.026c0.026-1.571,0.426-2.184,1.331-2.184
		s1.305,0.612,1.332,2.184L200.787,26.436 M204.143,26.09c0-1.704-1.199-2.796-3.01-2.796c-0.559,0-0.984,0.106-1.41,0.373
		l-0.746,0.452c-1.039,0.612-1.491,1.571-1.491,3.062c0,2.529,1.251,3.86,3.622,3.86c0.904,0,1.49-0.159,2.529-0.665l0.346-0.772
		l-0.187-0.239c-0.745,0.426-1.225,0.559-1.863,0.559c-0.825,0-1.624-0.452-1.997-1.118c-0.268-0.453-0.373-0.825-0.4-1.571h2.078
		c0.904,0,1.624-0.08,2.529-0.319V26.09z"/>
	<path d="M207.977,27.448l-1.73,2.21c-0.32,0.399-0.613,0.56-1.092,0.586v0.533h1.438c0.453-0.72,0.639-0.959,0.826-1.226
		l1.012-1.411l1.598,2.689l1.225-0.053c0.639,0.026,0.771,0.026,1.225,0.053v-0.586c-0.479-0.053-0.799-0.346-1.357-1.251
		l-1.412-2.423l1.545-1.812c0.479-0.559,0.639-0.665,1.225-0.691v-0.586h-1.491l-1.73,2.396l-0.825-1.358
		c-0.373-0.612-0.666-0.959-0.985-1.225c-0.56,0.133-1.731,0.399-2.317,0.506l0.134,0.586c0.08-0.027,0.187-0.027,0.239-0.027
		c0.506,0,0.799,0.214,1.225,0.933L207.977,27.448"/>
</g>
</svg>
