<svg width="349.88" height="119.336" xmlns="http://www.w3.org/2000/svg" xmlns:svg="http://www.w3.org/2000/svg" xmlns:xlink="http://www.w3.org/1999/xlink">
 <g>
  <title>Layer 1</title>
  <g id="svg_1">
   <g id="svg_2">
    <polygon id="svg_3" opacity="0.2" fill="#1B1F8A" points="52.667,118.825 19.741,90.492 0.667,45.513 29.396,35.193 31.167,16.367     54.48,0.658 68.487,16.367 100.167,6.158 107.579,35.193 136.333,50.825 117.234,77.493 109.333,99.158 90.182,116.492"/>
    <polygon id="svg_4" fill="none" stroke="#000000" stroke-miterlimit="10" points="52.667,118.825 19.741,90.492 0.667,45.513 29.396,35.193     31.167,16.367 54.48,0.658 68.487,16.367 100.167,6.158 107.579,35.193 136.333,50.825 117.234,77.493 109.333,99.158     90.182,116.492"/>
    <line id="svg_5" fill="none" stroke="#000000" stroke-miterlimit="10" x1="76.167" y1="55.658" x2="68.487" y2="16.367"/>
    <line id="svg_6" fill="none" stroke="#000000" stroke-miterlimit="10" x1="76.167" y1="55.658" x2="107.579" y2="35.193"/>
    <line id="svg_7" fill="none" stroke="#000000" stroke-miterlimit="10" x1="76.167" y1="55.658" x2="117.234" y2="77.493"/>
    <line id="svg_8" fill="none" stroke="#000000" stroke-miterlimit="10" x1="76.167" y1="55.658" x2="90.182" y2="116.492"/>
    <line id="svg_9" fill="none" stroke="#000000" stroke-miterlimit="10" x1="76.167" y1="55.658" x2="52.667" y2="118.825"/>
    <line id="svg_10" fill="none" stroke="#000000" stroke-miterlimit="10" x1="76.167" y1="55.658" x2="19.741" y2="90.492"/>
    <line id="svg_11" fill="none" stroke="#000000" stroke-miterlimit="10" x1="76.167" y1="55.658" x2="29.396" y2="35.193"/>
    <circle id="svg_12" cx="76.167" cy="55.658" r="3.671"/>
   </g>
   <g id="svg_13">
    <defs>
     <rect id="SVGID_1_" x="76.774" y="40.104" width="8" height="8"/>
    </defs>
    <clipPath id="SVGID_2_">
     <use id="svg_14" xlink:href="#SVGID_1_"/>
    </clipPath>
    <path id="svg_15" clip-path="url(#SVGID_2_)" d="m81.86,41.181l0.16,0.293c0.16,-0.079 0.293,-0.133 0.426,-0.133c0.426,0 0.692,0.373 0.692,1.012c0,2.344 -1.544,4.926 -2.929,4.926c-0.799,0 -1.278,-0.665 -1.278,-1.704c0,-1.65 0.613,-3.115 2.184,-5.032l-0.16,-0.293c-0.32,0.133 -0.533,0.187 -0.985,0.187c-0.426,0 -1.118,-0.026 -1.571,-0.08l-0.187,-0.026c-0.106,0 -0.187,0 -0.187,0c-0.186,0 -0.346,0.026 -0.506,0.106c-0.24,0.426 -0.399,1.012 -0.612,1.864l0.346,0l0.266,-0.666c0.133,-0.267 0.426,-0.426 0.826,-0.426c0.08,0 0.213,0 0.426,0c0.133,0.026 0.24,0.026 0.453,0.026c0.32,0 0.586,-0.026 0.985,-0.08c-1.757,1.917 -2.423,3.249 -2.423,4.819c0,1.226 0.719,2.104 1.758,2.104c0.666,0 1.251,-0.292 1.997,-0.932c0.746,-0.692 1.491,-1.757 1.997,-2.849c0.346,-0.799 0.612,-1.864 0.612,-2.503c0,-0.905 -0.399,-1.545 -0.985,-1.545c-0.213,0 -0.399,0.054 -0.506,0.187l-0.799,0.745"/>
   </g>
   <g id="svg_60">
    <defs id="svg_61">
     <rect id="svg_62" x="76.774" y="40.104" width="8" height="8"/>
    </defs>
    <clipPath id="svg_63">
     <use id="svg_64" xlink:href="#SVGID_1_"/>
    </clipPath>
    <path id="svg_65" clip-path="url(#SVGID_2_)" d="m81.86,41.181l0.16,0.293c0.16,-0.079 0.293,-0.133 0.426,-0.133c0.426,0 0.692,0.373 0.692,1.012c0,2.344 -1.544,4.926 -2.929,4.926c-0.799,0 -1.278,-0.665 -1.278,-1.704c0,-1.65 0.613,-3.115 2.184,-5.032l-0.16,-0.293c-0.32,0.133 -0.533,0.187 -0.985,0.187c-0.426,0 -1.118,-0.026 -1.571,-0.08l-0.187,-0.026c-0.106,0 -0.187,0 -0.187,0c-0.186,0 -0.346,0.026 -0.506,0.106c-0.24,0.426 -0.399,1.012 -0.612,1.864l0.346,0l0.266,-0.666c0.133,-0.267 0.426,-0.426 0.826,-0.426c0.08,0 0.213,0 0.426,0c0.133,0.026 0.24,0.026 0.453,0.026c0.32,0 0.586,-0.026 0.985,-0.08c-1.757,1.917 -2.423,3.249 -2.423,4.819c0,1.226 0.719,2.104 1.758,2.104c0.666,0 1.251,-0.292 1.997,-0.932c0.746,-0.692 1.491,-1.757 1.997,-2.849c0.346,-0.799 0.612,-1.864 0.612,-2.503c0,-0.905 -0.399,-1.545 -0.985,-1.545c-0.213,0 -0.399,0.054 -0.506,0.187l-0.799,0.745"/>
   </g>
  </g>
  <g id="svg_16">
   <g id="svg_17">
    <polygon id="svg_18" opacity="0.2" fill="#1B1F8A" points="265.477,118.825 232.551,90.492 213.477,45.513 242.206,35.193 243.977,16.367     267.291,0.658 281.298,16.367 312.977,6.158 320.39,35.193 349.144,50.825 330.044,77.493 322.144,99.158 302.992,116.492"/>
    <polygon id="svg_19" fill="none" stroke="#000000" stroke-miterlimit="10" points="265.477,118.825 232.551,90.492 213.477,45.513     242.206,35.193 243.977,16.367 267.291,0.658 281.298,16.367 312.977,6.158 320.39,35.193 349.144,50.825 330.044,77.493     322.144,99.158 302.992,116.492"/>
    <line id="svg_20" fill="none" stroke="#000000" stroke-miterlimit="10" x1="288.978" y1="55.658" x2="281.298" y2="16.367"/>
    <line id="svg_21" fill="none" stroke="#000000" stroke-miterlimit="10" x1="288.978" y1="55.658" x2="320.39" y2="35.193"/>
    <line id="svg_22" fill="none" stroke="#000000" stroke-miterlimit="10" x1="288.978" y1="55.658" x2="330.044" y2="77.493"/>
    <line id="svg_23" fill="none" stroke="#000000" stroke-miterlimit="10" x1="288.978" y1="55.658" x2="302.992" y2="116.492"/>
    <line id="svg_24" fill="none" stroke="#000000" stroke-miterlimit="10" x1="288.978" y1="55.658" x2="265.477" y2="118.825"/>
    <line id="svg_25" fill="none" stroke="#000000" stroke-miterlimit="10" x1="288.978" y1="55.658" x2="232.551" y2="90.492"/>
    <line id="svg_26" fill="none" stroke="#000000" stroke-miterlimit="10" x1="288.978" y1="55.658" x2="242.206" y2="35.193"/>
    <polygon id="svg_27" fill="none" stroke="#000000" stroke-miterlimit="10" points="283.766,28.996 264.088,44.768 265.591,70.095     279.503,81.125 295.076,82.129 312.965,68.413 311.736,40.831"/>
    <circle id="svg_28" cx="288.978" cy="55.658" r="3.671"/>
   </g>
   <g id="svg_29">
    <defs>
     <rect id="SVGID_3_" x="282.648" y="48.78" width="10" height="17"/>
    </defs>
    <clipPath id="SVGID_4_">
     <use id="svg_30" xlink:href="#SVGID_3_"/>
    </clipPath>
   </g>
  </g>
  <g id="svg_31">
   <g id="svg_32">
    <path id="svg_33" fill="none" stroke="#000000" stroke-width="3" stroke-miterlimit="10" d="m227.278,19.637c-18.174,-6.461 -37.744,-9.979 -58.134,-9.979c-20.525,0 -40.219,3.564 -58.494,10.107"/>
    <g id="svg_34">
     <polygon id="svg_35" points="237.145,23.491 225.375,12.474 226.51,19.434 221.028,23.868"/>
    </g>
   </g>
  </g>
  <g id="svg_48">
   <g id="svg_49">
    <polyline id="svg_50" fill="none" stroke="#000000" stroke-width="0.5" stroke-miterlimit="10" points="71.827,29.386 70.906,28.996     70.126,29.622"/>
    <line id="svg_51" fill="none" stroke="#000000" stroke-width="0.5" stroke-miterlimit="10" stroke-dasharray="2.1108,2.1108" x1="68.479" y1="30.941" x2="52.832" y2="43.482"/>
    <polyline id="svg_52" fill="none" stroke="#000000" stroke-width="0.5" stroke-miterlimit="10" points="52.008,44.142 51.228,44.768     51.287,45.766"/>
    <line id="svg_53" fill="none" stroke="#000000" stroke-width="0.5" stroke-miterlimit="10" stroke-dasharray="2.1247,2.1247" x1="51.413" y1="47.887" x2="52.609" y2="68.036"/>
    <polyline id="svg_54" fill="none" stroke="#000000" stroke-width="0.5" stroke-miterlimit="10" points="52.672,69.097 52.731,70.095     53.515,70.716"/>
    <polyline id="svg_55" fill="none" stroke="#000000" stroke-width="0.5" stroke-miterlimit="10" stroke-dasharray="1.9964,1.9964" points="55.08,71.956 66.643,81.125 82.216,82.129 98.52,69.628"/>
    <polyline id="svg_56" fill="none" stroke="#000000" stroke-width="0.5" stroke-miterlimit="10" points="99.312,69.021 100.105,68.413     100.061,67.414"/>
    <line id="svg_57" fill="none" stroke="#000000" stroke-width="0.5" stroke-miterlimit="10" stroke-dasharray="1.97,1.97" x1="99.973" y1="65.446" x2="98.965" y2="42.813"/>
    <polyline id="svg_58" fill="none" stroke="#000000" stroke-width="0.5" stroke-miterlimit="10" points="98.921,41.83 98.876,40.831     97.956,40.441"/>
    <line id="svg_59" fill="none" stroke="#000000" stroke-width="0.5" stroke-miterlimit="10" stroke-dasharray="1.8914,1.8914" x1="96.213" y1="39.704" x2="72.698" y2="29.754"/>
   </g>
  </g>
  <text stroke="#000000" transform="matrix(0.7381818294525146,0,0,0.7381818294525146,42.1118163689971,18.830453734844923) " font-style="italic" xml:space="preserve" text-anchor="middle" font-family="serif" font-size="24" id="svg_67" y="41.59275" x="343.24467" stroke-linecap="null" stroke-linejoin="null" stroke-dasharray="null" stroke-width="0" fill="#000000">v&#x27;</text>
  <text font-weight="normal" stroke="#000000" transform="matrix(0.6658574739613954,0,0,0.6658574739613954,28.789668928185858,15.939601665728237) " xml:space="preserve" text-anchor="middle" font-family="serif" font-size="24" id="svg_68" y="21.82054" x="215.67801" stroke-linecap="null" stroke-linejoin="null" stroke-dasharray="null" stroke-width="0" fill="#000000">VertexExtrude</text>
 </g>
</svg>